<mxfile host="Electron" modified="2023-11-02T14:05:45.617Z" agent="Mozilla/5.0 (X11; Linux x86_64) AppleWebKit/537.36 (KHTML, like Gecko) draw.io/22.0.3 Chrome/114.0.5735.289 Electron/25.8.4 Safari/537.36" etag="HCqOKPAuRubKwPiBhyHy" version="22.0.3" type="device">
  <diagram name="Page-1" id="9RCSip2Hg1mpKa0nwZeF">
    <mxGraphModel dx="2580" dy="1270" grid="0" gridSize="10" guides="1" tooltips="1" connect="1" arrows="1" fold="1" page="0" pageScale="1" pageWidth="827" pageHeight="1169" math="0" shadow="0">
      <root>
        <mxCell id="0" />
        <mxCell id="1" parent="0" />
        <mxCell id="0X6cPKjye94rvXZ-Qh8z-38" value="argocd" style="fillColor=none;strokeColor=#5A6C86;dashed=1;verticalAlign=top;fontStyle=0;fontColor=#5A6C86;whiteSpace=wrap;html=1;" parent="1" vertex="1">
          <mxGeometry x="510" y="638" width="181" height="211" as="geometry" />
        </mxCell>
        <mxCell id="0X6cPKjye94rvXZ-Qh8z-22" value="kodiko-backend&lt;br&gt;" style="fillColor=none;strokeColor=#5A6C86;dashed=1;verticalAlign=top;fontStyle=0;fontColor=#5A6C86;whiteSpace=wrap;html=1;" parent="1" vertex="1">
          <mxGeometry x="509" y="173" width="291" height="240" as="geometry" />
        </mxCell>
        <mxCell id="0X6cPKjye94rvXZ-Qh8z-3" value="kube-system&lt;br&gt;" style="fillColor=none;strokeColor=#5A6C86;dashed=1;verticalAlign=top;fontStyle=0;fontColor=#5A6C86;whiteSpace=wrap;html=1;" parent="1" vertex="1">
          <mxGeometry x="206" y="178" width="240" height="152" as="geometry" />
        </mxCell>
        <mxCell id="0X6cPKjye94rvXZ-Qh8z-13" style="edgeStyle=orthogonalEdgeStyle;rounded=0;orthogonalLoop=1;jettySize=auto;html=1;exitX=0;exitY=0.5;exitDx=0;exitDy=0;" parent="1" source="0X6cPKjye94rvXZ-Qh8z-9" target="0X6cPKjye94rvXZ-Qh8z-1" edge="1">
          <mxGeometry relative="1" as="geometry" />
        </mxCell>
        <mxCell id="0X6cPKjye94rvXZ-Qh8z-1" value="ALB" style="sketch=0;outlineConnect=0;fontColor=#232F3E;gradientColor=none;fillColor=#8C4FFF;strokeColor=none;dashed=0;verticalLabelPosition=bottom;verticalAlign=top;align=center;html=1;fontSize=12;fontStyle=0;aspect=fixed;pointerEvents=1;shape=mxgraph.aws4.application_load_balancer;" parent="1" vertex="1">
          <mxGeometry x="64" y="480" width="60" height="60" as="geometry" />
        </mxCell>
        <mxCell id="0X6cPKjye94rvXZ-Qh8z-17" value="" style="group" parent="1" vertex="1" connectable="0">
          <mxGeometry x="246" y="216" width="170" height="142" as="geometry" />
        </mxCell>
        <mxCell id="0X6cPKjye94rvXZ-Qh8z-10" value="AWS LB Controller" style="text;html=1;align=center;verticalAlign=middle;resizable=1;points=[];autosize=1;strokeColor=none;fillColor=none;movable=1;rotatable=1;deletable=1;editable=1;locked=0;connectable=1;container=0;" parent="0X6cPKjye94rvXZ-Qh8z-17" vertex="1">
          <mxGeometry x="20.999999999999886" y="83" width="118" height="26" as="geometry" />
        </mxCell>
        <mxCell id="0X6cPKjye94rvXZ-Qh8z-9" value="" style="rounded=0;whiteSpace=wrap;html=1;fillColor=none;movable=1;resizable=1;rotatable=1;deletable=1;editable=1;locked=0;connectable=1;" parent="0X6cPKjye94rvXZ-Qh8z-17" vertex="1">
          <mxGeometry width="160" height="83" as="geometry" />
        </mxCell>
        <mxCell id="0X6cPKjye94rvXZ-Qh8z-6" value="" style="shape=image;verticalLabelPosition=bottom;labelBackgroundColor=default;verticalAlign=top;aspect=fixed;imageAspect=0;image=data:image/svg+xml,PHN2ZyB4bWxucz0iaHR0cDovL3d3dy53My5vcmcvMjAwMC9zdmciIHZlcnNpb249IjEuMSIgaWQ9InN2ZzIiIGhlaWdodD0iNzAxLjk2NjM3IiB3aWR0aD0iNzIyLjg0NTciIHZpZXdCb3g9IjAgMCA3MjIuODQ1NyA3MDEuOTY2MzciPiYjeGE7ICA8ZGVmcyBpZD0iZGVmczQiLz4mI3hhOyAgJiN4YTsgIDxtZXRhZGF0YSBpZD0ibWV0YWRhdGE3Ij4mI3hhOyAgICAmI3hhOyAgICAgICYjeGE7ICAgICAgICBpbWFnZS9zdmcreG1sJiN4YTsgICAgICAgICYjeGE7ICAgICAgICAmI3hhOyAgICAgICYjeGE7ICAgICYjeGE7ICA8L21ldGFkYXRhPiYjeGE7ICA8ZyB0cmFuc2Zvcm09InRyYW5zbGF0ZSgtNi4zMjYwOTQyLC0xNzQuNzUyNCkiIGlkPSJsYXllcjEiPiYjeGE7ICAgIDxnIGlkPSJnMzA1MiI+JiN4YTsgICAgICA8cGF0aCBpZD0icGF0aDMwNTUiIGQ9Im0gMzY1LjMxMjUsMTg0LjgxMjUgYSA0Ni43MjQ2MjEsNDYuMzQyMjQ2IDAgMCAwIC0xNy45MDYyNSw0LjUzMTI1IGwgLTI0NC4zNDM3NSwxMTYuNzUgYSA0Ni43MjQ2MjEsNDYuMzQyMjQ2IDAgMCAwIC0yNS4yODEyNSwzMS40Mzc1IEwgMTcuNSw1OTkuNzgxMjUgQSA0Ni43MjQ2MjEsNDYuMzQyMjQ2IDAgMCAwIDIzLjg0Mzc1LDYzNS4zMTI1IDQ2LjcyNDYyMSw0Ni4zNDIyNDYgMCAwIDAgMjYuNSw2MzkgbCAxNjkuMTI1LDIxMC4yODEyNSBhIDQ2LjcyNDYyMSw0Ni4zNDIyNDYgMCAwIDAgMzYuNTMxMjUsMTcuNDM3NSBMIDUwMy4zNzUsODY2LjY1NjI1IEEgNDYuNzI0NjIxLDQ2LjM0MjI0NiAwIDAgMCA1MzkuOTA2MjUsODQ5LjI1IEwgNzA4Ljk2ODc1LDYzOC45Mzc1IEEgNDYuNzI0NjIxLDQ2LjM0MjI0NiAwIDAgMCA3MTgsNTk5LjcxODc1IGwgLTYwLjM3NSwtMjYyLjI1IGEgNDYuNzI0NjIxLDQ2LjM0MjI0NiAwIDAgMCAtMjUuMjgxMjUsLTMxLjQzNzUgbCAtMjQ0LjM3NSwtMTE2LjY4NzUgQSA0Ni43MjQ2MjEsNDYuMzQyMjQ2IDAgMCAwIDM2NS4zMTI1LDE4NC44MTI1IHoiIHN0eWxlPSJmaWxsOiMzMjZjZTU7ZmlsbC1vcGFjaXR5OjE7c3Ryb2tlOiNmZmZmZmY7c3Ryb2tlLXdpZHRoOjA7c3Ryb2tlLW1pdGVybGltaXQ6NDtzdHJva2Utb3BhY2l0eToxO3N0cm9rZS1kYXNoYXJyYXk6bm9uZSIvPiYjeGE7ICAgICAgPHBhdGggc3R5bGU9ImZvbnQtc2l6ZTptZWRpdW07Zm9udC1zdHlsZTpub3JtYWw7Zm9udC12YXJpYW50Om5vcm1hbDtmb250LXdlaWdodDpub3JtYWw7Zm9udC1zdHJldGNoOm5vcm1hbDt0ZXh0LWluZGVudDowO3RleHQtYWxpZ246c3RhcnQ7dGV4dC1kZWNvcmF0aW9uOm5vbmU7bGluZS1oZWlnaHQ6bm9ybWFsO2xldHRlci1zcGFjaW5nOm5vcm1hbDt3b3JkLXNwYWNpbmc6bm9ybWFsO3RleHQtdHJhbnNmb3JtOm5vbmU7ZGlyZWN0aW9uOmx0cjtibG9jay1wcm9ncmVzc2lvbjp0Yjt3cml0aW5nLW1vZGU6bHItdGI7dGV4dC1hbmNob3I6c3RhcnQ7YmFzZWxpbmUtc2hpZnQ6YmFzZWxpbmU7Y29sb3I6IzAwMDAwMDtmaWxsOiNmZmZmZmY7ZmlsbC1vcGFjaXR5OjE7c3Ryb2tlOiNmZmZmZmY7c3Ryb2tlLXdpZHRoOjAuMjU7c3Ryb2tlLW1pdGVybGltaXQ6NDtzdHJva2Utb3BhY2l0eToxO3N0cm9rZS1kYXNoYXJyYXk6bm9uZTttYXJrZXI6bm9uZTt2aXNpYmlsaXR5OnZpc2libGU7ZGlzcGxheTppbmxpbmU7b3ZlcmZsb3c6dmlzaWJsZTtlbmFibGUtYmFja2dyb3VuZDphY2N1bXVsYXRlO2ZvbnQtZmFtaWx5OlNhbnM7LWlua3NjYXBlLWZvbnQtc3BlY2lmaWNhdGlvbjpTYW5zIiBkPSJtIDM2Ny43MzM2NiwyNzQuMDU5NjIgYyAtOC4wNzY5Niw4LjJlLTQgLTE0LjYyNTk2LDcuMjc1OTEgLTE0LjYyNSwxNi4yNSAxZS01LDAuMTM3NzMgMC4wMjgyLDAuMjY5MzQgMC4wMzEyLDAuNDA2MjUgLTAuMDExOSwxLjIxOTM2IC0wLjA3MDgsMi42ODgzNiAtMC4wMzEyLDMuNzUgMC4xOTI2Miw1LjE3NiAxLjMyMDksOS4xMzc0OSAyLDEzLjkwNjI1IDEuMjMwMjgsMTAuMjA2NjYgMi4yNjExNywxOC42NjczNiAxLjYyNSwyNi41MzEyNSAtMC42MTg2OSwyLjk2NTQgLTIuODAyODgsNS42Nzc0MSAtNC43NSw3LjU2MjUgbCAtMC4zNDM3NSw2LjE4NzUgYyAtOC43NzY4MiwwLjcyNzE3IC0xNy42MTIzNSwyLjA1ODc0IC0yNi40Mzc1LDQuMDYyNSAtMzcuOTc0NjEsOC42MjIxOCAtNzAuNjcwMDgsMjguMTgzMDcgLTk1LjU2MjUsNTQuNTkzNzUgLTEuNjE1MjIsLTEuMTAxOTMgLTQuNDQxMDMsLTMuMTI5MTQgLTUuMjgxMywtMy43NSAtMi42MTExNywwLjM1MjYyIC01LjI1MDIxLDEuMTU4MjkgLTguNjg3NSwtMC44NDM3NSAtNi41NDQ5MSwtNC40MDU2MyAtMTIuNTA1ODcsLTEwLjQ4NjkzIC0xOS43MTg3NSwtMTcuODEyNSAtMy4zMDQ5OCwtMy41MDQxOSAtNS42OTgzMiwtNi44NDEwMSAtOS42MjUsLTEwLjIxODc1IC0wLjg5MTcyLC0wLjc2NzA3IC0yLjI1MjU4LC0xLjgwNDU1IC0zLjI1LC0yLjU5Mzc1IC0zLjA2OTg4LC0yLjQ0NzU3IC02LjY5MDcsLTMuNzI0MDIgLTEwLjE4NzUsLTMuODQzNzUgLTQuNDk1ODksLTAuMTUzOTQgLTguODIzOTQsMS42MDM4NSAtMTEuNjU2MjUsNS4xNTYyNSAtNS4wMzUyMSw2LjMxNTM4IC0zLjQyMzEyLDE1Ljk2ODA1IDMuNTkzNzUsMjEuNTYyNSAwLjA3MTIsMC4wNTY3IDAuMTQ3MDIsMC4xMDA3OCAwLjIxODc1LDAuMTU2MjUgMC45NjQyMiwwLjc4MTYyIDIuMTQ0OTYsMS43ODMxMyAzLjAzMTI1LDIuNDM3NSA0LjE2Njg3LDMuMDc2NTUgNy45NzMyLDQuNjUxNDUgMTIuMTI1LDcuMDkzNzUgOC43NDcsNS40MDE4MSAxNS45OTgzNyw5Ljg4MDg2IDIxLjc1LDE1LjI4MTI1IDIuMjQ2MDIsMi4zOTQxNyAyLjYzODU4LDYuNjEyOTIgMi45Mzc1LDguNDM3NSBsIDQuNjg3NSw0LjE4NzUgYyAtMjUuMDkzNDIsMzcuNzYzNjggLTM2LjcwNjg2LDg0LjQwOTQ2IC0yOS44NDM3LDEzMS45Mzc1IGwgLTYuMTI1LDEuNzgxMjUgYyAtMS42MTQzLDIuMDg0NjEgLTMuODk1NDEsNS4zNjQ3NCAtNi4yODEzLDYuMzQzNzUgLTcuNTI1MTMsMi4zNzAyMSAtMTUuOTk0MjQsMy4yNDA1OSAtMjYuMjE4NzUsNC4zMTI1IC00LjgwMDMxLDAuMzk5MTUgLTguOTQyMTgsMC4xNjA5NSAtMTQuMDMxMjUsMS4xMjUgLTEuMTIwMDgsMC4yMTIxOCAtMi42ODA3MiwwLjYxODc3IC0zLjkwNjI1LDAuOTA2MjUgLTAuMDQyNiwwLjAwOSAtMC4wODI0LDAuMDIxNiAtMC4xMjUsMC4wMzEyIC0wLjA2NjgsMC4wMTU1IC0wLjE1NDU2LDAuMDQ3OSAtMC4yMTg3NSwwLjA2MjUgLTguNjIwMTQsMi4wODI3OSAtMTQuMTU3NzQsMTAuMDA2IC0xMi4zNzUsMTcuODEyNSAxLjc4MzE2LDcuODA4MzMgMTAuMjAzMTQsMTIuNTU2NzcgMTguODc1LDEwLjY4NzUgMC4wNjI2LC0wLjAxNDMgMC4xNTM1LC0wLjAxNjcgMC4yMTg3NSwtMC4wMzEyIDAuMDk3OSwtMC4wMjI0IDAuMTg0MDksLTAuMDY5OSAwLjI4MTI1LC0wLjA5MzcgMS4yMDg4NSwtMC4yNjUzNiAyLjcyMzc3LC0wLjU2MDYgMy43ODEyNSwtMC44NDM3NSA1LjAwMzM0LC0xLjMzOTYzIDguNjI2OTQsLTMuMzA3OTYgMTMuMTI1LC01LjAzMTI1IDkuNjc2OTQsLTMuNDcwNzcgMTcuNjkxNzMsLTYuMzcwMjIgMjUuNSwtNy41IDMuMjYxMTgsLTAuMjU1NDIgNi42OTcxMSwyLjAxMjE2IDguNDA2MjUsMi45Njg3NSBsIDYuMzc1LC0xLjA5Mzc1IGMgMTQuNjcwMTgsNDUuNDgyODIgNDUuNDE0MTYsODIuMjQ1MDIgODQuMzQzNzUsMTA1LjMxMjUgbCAtMi42NTYyNSw2LjM3NSBjIDAuOTU3NDIsMi40NzU0MiAyLjAxMzQxLDUuODI0NyAxLjMwMDIyLDguMjY5MzIgLTIuODM4NjgsNy4zNjEyIC03LjcwMDk3LDE1LjEzMDk3IC0xMy4yMzc3MiwyMy43OTMxOCAtMi42ODA4NSw0LjAwMTkyIC01LjQyNDUzLDcuMTA3NjEgLTcuODQzNzUsMTEuNjg3NSAtMC41Nzg5LDEuMDk1ODkgLTEuMzE2MTgsMi43NzkzMiAtMS44NzUsMy45Mzc1IC0zLjc1ODg0LDguMDQyMzYgLTEuMDAxNjQsMTcuMzA1MiA2LjIxODc1LDIwLjc4MTI1IDcuMjY1NzUsMy40OTc4OCAxNi4yODQ0NywtMC4xOTEzNCAyMC4xODc1LC04LjI1IDAuMDA2LC0wLjAxMTQgMC4wMjU3LC0wLjAxOTggMC4wMzEyLC0wLjAzMTIgMC4wMDQsLTAuMDA5IC0wLjAwNCwtMC4wMjI1IDAsLTAuMDMxMiAwLjU1NTkzLC0xLjE0MjU1IDEuMzQzNTMsLTIuNjQ0MzcgMS44MTI1LC0zLjcxODc1IDIuMDcyMTMsLTQuNzQ3MDIgMi43NjE2MSwtOC44MTUwNiA0LjIxODc1LC0xMy40MDYyNSAzLjg2OTYyLC05LjcyMDE0IDUuOTk1NjcsLTE5LjkxOTAzIDExLjMyMjU4LC0yNi4yNzQxMSAxLjQ1ODY4LC0xLjc0MDIzIDMuODM2ODEsLTIuNDA5NSA2LjMwMjQyLC0zLjA2OTY0IGwgMy4zMTI1LC02IGMgMzMuOTM4MjQsMTMuMDI2OCA3MS45MjY2NiwxNi41MjI0NiAxMDkuODc1LDcuOTA2MjUgOC42NTY5NywtMS45NjU1NyAxNy4wMTQ0NCwtNC41MDk0NSAyNS4wOTM3NSwtNy41NjI1IDAuOTMwOTgsMS42NTEzMyAyLjY2MTEzLDQuODI1NyAzLjEyNSw1LjYyNSAyLjUwNTU5LDAuODE1MTggNS4yNDA0NCwxLjIzNjE0IDcuNDY4NzUsNC41MzEyNSAzLjk4NTM5LDYuODA4OTggNi43MTA5LDE0Ljg2NDE2IDEwLjAzMTI1LDI0LjU5Mzc1IDEuNDU3MzgsNC41OTExMSAyLjE3NzYyLDguNjU5MzMgNC4yNSwxMy40MDYyNSAwLjQ3MjM0LDEuMDgxOTUgMS4yNTYsMi42MDQ4NiAxLjgxMjUsMy43NSAzLjg5NDgyLDguMDg0ODQgMTIuOTQyMTIsMTEuNzg2NjcgMjAuMjE4NzUsOC4yODEyNSA3LjIxOTUsLTMuNDc3OSA5Ljk3OTc0LC0xMi43Mzk5IDYuMjE4NzUsLTIwLjc4MTI1IC0wLjU1ODg5LC0xLjE1ODE0IC0xLjMyNzMsLTIuODQxNjQgLTEuOTA2MjUsLTMuOTM3NSAtMi40MTk0NiwtNC41Nzk3NiAtNS4xNjI3LC03LjY1NDQ4IC03Ljg0Mzc1LC0xMS42NTYyNSAtNS41MzcyMSwtOC42NjE5MiAtMTAuMTI5NjgsLTE1Ljg1NzcgLTEyLjk2ODc1LC0yMy4yMTg3NSAtMS4xODcxMSwtMy43OTY1NyAwLjIwMDI4LC02LjE1Nzc0IDEuMTI1LC04LjYyNSAtMC41NTM3OCwtMC42MzQ3NyAtMS43Mzg4MSwtNC4yMjAwOSAtMi40Mzc1LC01LjkwNjI1IDQwLjQ1NzQsLTIzLjg4ODE2IDcwLjI5ODU2LC02Mi4wMjEyOSA4NC4zMTI1LC0xMDYuMDYyNSAxLjg5MjQsMC4yOTc0MiA1LjE4MTU0LDAuODc5MzYgNi4yNSwxLjA5Mzc1IDIuMTk5NTQsLTEuNDUwNyA0LjIyMTk0LC0zLjM0MzUyIDguMTg3NSwtMy4wMzEyNSA3LjgwODMyLDEuMTI5MzcgMTUuODIyODgsNC4wMjk3MyAyNS41LDcuNSA0LjQ5ODE1LDEuNzIzMDYgOC4xMjE2LDMuNzIzMTMgMTMuMTI1LDUuMDYyNSAxLjA1NzQ5LDAuMjgzMDkgMi41NzIzOCwwLjU0NzIgMy43ODEyNSwwLjgxMjUgMC4wOTcyLDAuMDIzOCAwLjE4MzMsMC4wNzE0IDAuMjgxMjUsMC4wOTM3IDAuMDY1MywwLjAxNDYgMC4xNTYxNSwwLjAxNjkgMC4yMTg3NSwwLjAzMTIgOC42NzIzNiwxLjg2Njk1IDE3LjA5Mzg0LC0yLjg3ODcxIDE4Ljg3NSwtMTAuNjg3NSAxLjc4MDc0LC03LjgwNjk2IC0zLjc1NDMsLTE1LjczMjAxIC0xMi4zNzUsLTE3LjgxMjUgLTEuMjUzOTMsLTAuMjg1MTMgLTMuMDMyMjUsLTAuNzY5MzggLTQuMjUsLTEgLTUuMDg5MTIsLTAuOTYzNzggLTkuMjMwOTIsLTAuNzI2MSAtMTQuMDMxMjUsLTEuMTI1IC0xMC4yMjQ1NiwtMS4wNzEzOCAtMTguNjkzNSwtMS45NDI2OSAtMjYuMjE4NzUsLTQuMzEyNSAtMy4wNjgyNiwtMS4xOTAyOCAtNS4yNTEwMywtNC44NDEyNCAtNi4zMTI1NSwtNi4zNDM3NSBsIC01LjkwNjI1LC0xLjcxODc1IGMgMy4wNjIyNiwtMjIuMTU0NDIgMi4yMzY1NSwtNDUuMjExMzQgLTMuMDYyNSwtNjguMjgxMjUgLTUuMzQ4MzksLTIzLjI4NDcxIC0xNC44MDAzNywtNDQuNTgwODQgLTI3LjQwNjI1LC02My4zNDM3NSAxLjUxNTA1LC0xLjM3NzI5IDQuMzc2MTksLTMuOTEwOTEgNS4xODc1LC00LjY1NjI1IDAuMjM3MTYsLTIuNjI0MTcgMC4wMzM0LC01LjM3NTUzIDIuNzUsLTguMjgxMjUgNS43NTEzNCwtNS40MDA2OSAxMy4wMDMyOSwtOS44Nzg5OCAyMS43NSwtMTUuMjgxMjUgNC4xNTE2NywtMi40NDI1MiA3Ljk4OTU0LC00LjAxNjk4IDEyLjE1NjI1LC03LjA5Mzc1IDAuOTQyMjUsLTAuNjk1NzYgMi4yMjg5LC0xLjc5NzU5IDMuMjE4NzUsLTIuNTkzNzUgNy4wMTUzOCwtNS41OTYzMyA4LjYzMDU4LC0xNS4yNDg0MiAzLjU5Mzc1LC0yMS41NjI1IC01LjAzNjgzLC02LjMxNDA4IC0xNC43OTcxMiwtNi45MDg4MyAtMjEuODEyNSwtMS4zMTI1IC0wLjk5ODU2LDAuNzkwODUgLTIuMzUzNTMsMS44MjI1MiAtMy4yNSwyLjU5Mzc1IC0zLjkyNjUsMy4zNzc5NiAtNi4zNTE0NSw2LjcxNDM5IC05LjY1NjI1LDEwLjIxODc1IC03LjIxMjQ5LDcuMzI1OTUgLTEzLjE3NDA3LDEzLjQzNzc3IC0xOS43MTg3NSwxNy44NDM3NSAtMi44MzYwMSwxLjY1MTA2IC02Ljk4OTk2LDEuMDc5NzggLTguODc1MDUsMC45Njg3NSBsIC01LjU2MjUsMy45Njg3NSBjIC0zMS43MTg4LC0zMy4yNjA1NyAtNzQuOTA0NjYsLTU0LjUyNTQ2IC0xMjEuNDA2MDUsLTU4LjY1NjMgLTAuMTMwMDYsLTEuOTQ4NzIgLTAuMzAwNDUsLTUuNDcxMTcgLTAuMzQzNzUsLTYuNTMxMjUgLTEuOTAzNzEsLTEuODIxNjUgLTQuMjAzNDIsLTMuMzc2ODYgLTQuNzgxMjUsLTcuMzEyNSAtMC42MzYxNywtNy44NjM4OSAwLjQyNTk3LC0xNi4zMjQ1OSAxLjY1NjI1LC0yNi41MzEyNSAwLjY3OTEsLTQuNzY4NzYgMS44MDczOCwtOC43MzAyNSAyLC0xMy45MDYyNSAwLjA0MzgsLTEuMTc2NjMgLTAuMDI2NSwtMi44ODQwMSAtMC4wMzEyLC00LjE1NjI1IC05LjZlLTQsLTguOTc0MDkgLTYuNTQ4MDQsLTE2LjI1MDgyIC0xNC42MjUsLTE2LjI1IHogbSAtMTguMzEyNSwxMTMuNDM3NSAtNC4zNDM3NSw3Ni43MTg3NSAtMC4zMTI1LDAuMTU2MjUgYyAtMC4yOTEzNCw2Ljg2MzM1IC01LjkzOTk2LDEyLjM0Mzc1IC0xMi44NzUsMTIuMzQzNzUgLTIuODQwODEsMCAtNS40NjI5NCwtMC45MTIyOSAtNy41OTM3NSwtMi40Njg3NSBsIC0wLjEyNSwwLjA2MjUgLTYyLjkwNjI1LC00NC41OTM3NSBjIDE5LjMzMzY1LC0xOS4wMTExNSA0NC4wNjI5MSwtMzMuMDYwMzkgNzIuNTYyNSwtMzkuNTMxMjUgNS4yMDU5OSwtMS4xODIwMyAxMC40MDk2NiwtMi4wNTkxIDE1LjU5Mzc1LC0yLjY4NzUgeiBtIDM2LjY1NjI1LDAgYyAzMy4yNzM0Nyw0LjA5MjMyIDY0LjA0NTAxLDE5LjE1ODgyIDg3LjYyNSw0Mi4yNSBsIC02Mi41LDQ0LjMxMjUgLTAuMjE4NzUsLTAuMDkzNyBjIC01LjU0NzQ1LDQuMDUxNjkgLTEzLjM2MzQzLDMuMDQ2MzkgLTE3LjY4NzUsLTIuMzc1IC0xLjc3MTMyLC0yLjIyMDk2IC0yLjcwMDcyLC00LjgzMjM5IC0yLjgxMjUsLTcuNDY4NzUgbCAtMC4wNjI1LC0wLjAzMTIgeiBtIC0xNDcuNjI1LDcwLjg3NSA1Ny40Mzc1LDUxLjM3NSAtMC4wNjI1LDAuMzEyNSBjIDUuMTg0MzcsNC41MDY5NyA1Ljk0ODg4LDEyLjMyNzk0IDEuNjI1LDE3Ljc1IC0xLjc3MTIsMi4yMjEwNSAtNC4xNDIwOCwzLjcxMDc0IC02LjY4NzUsNC40MDYyNSBsIC0wLjA2MjUsMC4yNSAtNzMuNjI1LDIxLjI1IGMgLTMuNzQ3MjgsLTM0LjI2NTE3IDQuMzI4NTUsLTY3LjU3MzY0IDIxLjM3NSwtOTUuMzQzNzUgeiBtIDI1OC4xNTYyNSwwLjAzMTIgYyA4LjUzNDEsMTMuODMyNTYgMTQuOTk2NTUsMjkuMjgyMTQgMTguODQzNzUsNDYuMDMxMjUgMy44MDEwNiwxNi41NDgyOCA0Ljc1NDk5LDMzLjA2Njk3IDMuMTg3NSw0OS4wMzEyNSBsIC03NCwtMjEuMzEyNSAtMC4wNjI1LC0wLjMxMjUgYyAtNi42MjY1LC0xLjgxMTA0IC0xMC42OTg5MywtOC41NTE2MiAtOS4xNTYyNSwtMTUuMzEyNSAwLjYzMjAzLC0yLjc2OTYyIDIuMTAyMjIsLTUuMTEyNjQgNC4wOTM3NSwtNi44NDM3NSBsIC0wLjAzMTIsLTAuMTU2MjUgNTcuMTI1LC01MS4xMjUgeiBtIC0xNDAuNjU2MjUsNTUuMzEyNSAyMy41MzEyNSwwIDE0LjYyNSwxOC4yODEyNSAtNS4yNSwyMi44MTI1IC0yMS4xMjUsMTAuMTU2MjUgLTIxLjE4NzUsLTEwLjE4NzUgLTUuMjUsLTIyLjgxMjUgeiBtIDc1LjQzNzUsNjIuNTYyNSBjIDAuOTk5OTcsLTAuMDUwNSAxLjk5NTU4LDAuMDM5NiAyLjk2ODc1LDAuMjE4NzUgbCAwLjEyNSwtMC4xNTYyNSA3Ni4xNTYyNSwxMi44NzUgYyAtMTEuMTQ1NSwzMS4zMTMxIC0zMi40NzI4MSw1OC40NDAxOCAtNjAuOTY4NzUsNzYuNTkzNzUgbCAtMjkuNTYyNSwtNzEuNDA2MjUgMC4wOTM3LC0wLjEyNSBjIC0yLjcxNTYxLC02LjMwOTk5IDAuMDAyLC0xMy43MDk1NiA2LjI1LC0xNi43MTg3NSAxLjU5OTY1LC0wLjc3MDQxIDMuMjcwODksLTEuMTk3MDEgNC45Mzc1LC0xLjI4MTI1IHogbSAtMTI3LjkwNjI1LDAuMzEyNSBjIDUuODExNzQsMC4wODE1IDExLjAyNDYyLDQuMTE1MjUgMTIuMzc1LDEwLjAzMTI1IDAuNjMyMTksMi43Njk1OCAwLjMyNDUsNS41MTM3NSAtMC43MTg3NSw3LjkzNzUgbCAwLjIxODc1LDAuMjgxMjUgLTI5LjI1LDcwLjY4NzUgYyAtMjcuMzQ3MTYsLTE3LjU0ODYgLTQ5LjEyOTI3LC00My44MjQwMyAtNjAuNzgxMjUsLTc2LjA2MjQ1IGwgNzUuNSwtMTIuODEyNSAwLjEyNSwwLjE1NjI1IGMgMC44NDQ1MSwtMC4xNTU0MSAxLjcwMSwtMC4yMzA0IDIuNTMxMjUsLTAuMjE4NzUgeiBtIDYzLjc4MTI1LDMwLjk2ODggYyAyLjAyNDQ1LC0wLjA3NDQgNC4wNzg2NSwwLjM0MDk4IDYuMDMxMjUsMS4yODEyNSAyLjU1OTUxLDEuMjMyNTMgNC41MzY3MywzLjE3MzE5IDUuNzgxMjUsNS41IGwgMC4yODEyNSwwIDM3LjIxODc1LDY3LjI1IGMgLTQuODMwMjksMS42MTkyMyAtOS43OTYwOSwzLjAwMzA4IC0xNC44NzUsNC4xNTYyNSAtMjguNDY0NTMsNi40NjI5IC01Ni44Mzg2Miw0LjUwNDY3IC04Mi41MzEyNSwtNC4yNSBsIDM3LjEyNSwtNjcuMTI1IDAuMDYyNSwwIGMgMi4yMjc2NywtNC4xNjQ0MSA2LjQ1MjQ3LC02LjY0ODg3IDEwLjkwNjI1LC02LjgxMjUgeiIgaWQ9InBhdGgzMDU5Ii8+JiN4YTsgICAgPC9nPiYjeGE7ICA8L2c+JiN4YTs8L3N2Zz4=;movable=1;resizable=1;rotatable=1;deletable=1;editable=1;locked=0;connectable=1;" parent="0X6cPKjye94rvXZ-Qh8z-17" vertex="1">
          <mxGeometry x="17.499999999999886" y="11.5" width="61.79" height="60" as="geometry" />
        </mxCell>
        <mxCell id="0X6cPKjye94rvXZ-Qh8z-7" value="" style="shape=image;verticalLabelPosition=bottom;labelBackgroundColor=default;verticalAlign=top;aspect=fixed;imageAspect=0;image=data:image/svg+xml,PHN2ZyB4bWxuczp4bGluaz0iaHR0cDovL3d3dy53My5vcmcvMTk5OS94bGluayIgeG1sbnM9Imh0dHA6Ly93d3cudzMub3JnLzIwMDAvc3ZnIiB2ZXJzaW9uPSIxLjEiIHZpZXdCb3g9IjAgMCA0OCA0OCIgaGVpZ2h0PSI0OHB4IiB3aWR0aD0iNDhweCI+JiN4YTsgICAgPHRpdGxlPkljb24tUmVzb3VyY2UvTmV0d29ya2luZy1hbmQtQ29udGVudC1EZWxpdmVyeS9SZXNfQVdTLUVsYXN0aWMtTG9hZC1CYWxhbmNpbmdfTmV0d29yay1Mb2FkLUJhbGFuY2VyXzQ4X0xpZ2h0PC90aXRsZT4mI3hhOyAgICA8ZyBmaWxsLXJ1bGU9ImV2ZW5vZGQiIGZpbGw9Im5vbmUiIHN0cm9rZS13aWR0aD0iMSIgc3Ryb2tlPSJub25lIiBpZD0iSWNvbi1SZXNvdXJjZS9OZXR3b3JraW5nLWFuZC1Db250ZW50LURlbGl2ZXJ5L1Jlc19BV1MtRWxhc3RpYy1Mb2FkLUJhbGFuY2luZ19OZXR3b3JrLUxvYWQtQmFsYW5jZXJfNDgiPiYjeGE7ICAgICAgICA8cGF0aCBmaWxsPSIjNEQyN0FBIiBpZD0iQVdTLUVsYXN0aWMtTG9hZC1CYWxhbmNpbmdfTmV0d29yay1Mb2FkLUJhbGFuY2VyX1Jlc291cmNlLUljb25fbGlnaHQtYmciIGQ9Ik0yNC4wMDE1LDQ0LjAwMjkgQzEyLjk3MjUsNDQuMDAyOSAzLjk5OTUsMzUuMDI5OSAzLjk5OTUsMjQuMDAwOSBDMy45OTk1LDEyLjk3MjkgMTIuOTcyNSwzLjk5OTkgMjQuMDAxNSwzLjk5OTkgQzM1LjAyOTUsMy45OTk5IDQ0LjAwMjUsMTIuOTcyOSA0NC4wMDI1LDI0LjAwMDkgQzQ0LjAwMjUsMzUuMDI5OSAzNS4wMjk1LDQ0LjAwMjkgMjQuMDAxNSw0NC4wMDI5IEwyNC4wMDE1LDQ0LjAwMjkgWiBNMjQuMDAxNSwxLjk5OTkgQzExLjg2OTUsMS45OTk5IDEuOTk5NSwxMS44Njg5IDEuOTk5NSwyNC4wMDA5IEMxLjk5OTUsMzYuMTMyOSAxMS44Njk1LDQ2LjAwMjkgMjQuMDAxNSw0Ni4wMDI5IEMzNi4xMzM1LDQ2LjAwMjkgNDYuMDAyNSwzNi4xMzI5IDQ2LjAwMjUsMjQuMDAwOSBDNDYuMDAyNSwxMS44Njg5IDM2LjEzMzUsMS45OTk5IDI0LjAwMTUsMS45OTk5IEwyNC4wMDE1LDEuOTk5OSBaIE0yOS4wODM1LDIzLjI5MzkgQzI5LjQ3NDUsMjMuNjg0OSAyOS40NzQ1LDI0LjMxNjkgMjkuMDgzNSwyNC43MDc5IEwyNi4xNDA1LDI3LjY1MzkgTDI0LjcyNjUsMjYuMjM5OSBMMjUuOTY0NSwyNS4wMDA5IEwxOC43NTA1LDI1LjAwMDkgTDE4Ljc1MDUsMjMuMDAwOSBMMjUuOTY0NSwyMy4wMDA5IEwyNC43MjY1LDIxLjc2MTkgTDI2LjE0MDUsMjAuMzQ3OSBMMjkuMDgzNSwyMy4yOTM5IFogTTMyLjAwMTUsMzUuMjUxOSBMMzUuMjUxNSwzNS4yNTE5IEwzNS4yNTE1LDMyLjAwMTkgTDMyLjAwMTUsMzIuMDAxOSBMMzIuMDAxNSwzNS4yNTE5IFogTTM2LjI1MTUsMzAuMDAxOSBMMzEuMDAxNSwzMC4wMDE5IEMzMC40NDg1LDMwLjAwMTkgMzAuMDAxNSwzMC40NDg5IDMwLjAwMTUsMzEuMDAxOSBMMzAuMDAxNSwzNi4yNTE5IEMzMC4wMDE1LDM2LjgwNDkgMzAuNDQ4NSwzNy4yNTE5IDMxLjAwMTUsMzcuMjUxOSBMMzYuMjUxNSwzNy4yNTE5IEMzNi44MDQ1LDM3LjI1MTkgMzcuMjUxNSwzNi44MDQ5IDM3LjI1MTUsMzYuMjUxOSBMMzcuMjUxNSwzMS4wMDE5IEMzNy4yNTE1LDMwLjQ0ODkgMzYuODA0NSwzMC4wMDE5IDM2LjI1MTUsMzAuMDAxOSBMMzYuMjUxNSwzMC4wMDE5IFogTTE3LjY2NjUsMTguNzQwOSBMMjQuOTYxNSwxNC44OTA5IEwyMy4zOTQ1LDE0LjQ2NTkgTDIzLjkxNzUsMTIuNTM1OSBMMjcuOTM2NSwxMy42MjQ5IEMyOC40Njk1LDEzLjc2OTkgMjguNzgzNSwxNC4zMTc5IDI4LjYzOTUsMTQuODUxOSBMMjcuNTUwNSwxOC44NzI5IEwyNS42MjA1LDE4LjM0OTkgTDI2LjEwODUsMTYuNTQ2OSBMMTguNjAwNSwyMC41MTA5IEwxNy42NjY1LDE4Ljc0MDkgWiBNMzIuMDAxNSwxNi4wMDA5IEwzNS4yNTE1LDE2LjAwMDkgTDM1LjI1MTUsMTIuNzUwOSBMMzIuMDAxNSwxMi43NTA5IEwzMi4wMDE1LDE2LjAwMDkgWiBNMzYuMjUxNSwxMC43NTA5IEwzMS4wMDE1LDEwLjc1MDkgQzMwLjQ0ODUsMTAuNzUwOSAzMC4wMDE1LDExLjE5NzkgMzAuMDAxNSwxMS43NTA5IEwzMC4wMDE1LDE3LjAwMDkgQzMwLjAwMTUsMTcuNTUzOSAzMC40NDg1LDE4LjAwMDkgMzEuMDAxNSwxOC4wMDA5IEwzNi4yNTE1LDE4LjAwMDkgQzM2LjgwNDUsMTguMDAwOSAzNy4yNTE1LDE3LjU1MzkgMzcuMjUxNSwxNy4wMDA5IEwzNy4yNTE1LDExLjc1MDkgQzM3LjI1MTUsMTEuMTk3OSAzNi44MDQ1LDEwLjc1MDkgMzYuMjUxNSwxMC43NTA5IEwzNi4yNTE1LDEwLjc1MDkgWiBNOC4zNDU1LDI3LjM0NjkgTDE1LjAzNTUsMjcuMzQ2OSBMMTUuMDM1NSwyMC42NTY5IEw4LjM0NTUsMjAuNjU2OSBMOC4zNDU1LDI3LjM0NjkgWiBNMTYuMDM1NSwxOC42NTU5IEw3LjM0NTUsMTguNjU1OSBDNi43OTI1LDE4LjY1NTkgNi4zNDU1LDE5LjEwMzkgNi4zNDU1LDE5LjY1NTkgTDYuMzQ1NSwyOC4zNDY5IEM2LjM0NTUsMjguODk4OSA2Ljc5MjUsMjkuMzQ2OSA3LjM0NTUsMjkuMzQ2OSBMMTYuMDM1NSwyOS4zNDY5IEMxNi41ODg1LDI5LjM0NjkgMTcuMDM1NSwyOC44OTg5IDE3LjAzNTUsMjguMzQ2OSBMMTcuMDM1NSwxOS42NTU5IEMxNy4wMzU1LDE5LjEwMzkgMTYuNTg4NSwxOC42NTU5IDE2LjAzNTUsMTguNjU1OSBMMTYuMDM1NSwxOC42NTU5IFogTTI4LjYzOTUsMzMuMTQ5OSBDMjguNzgzNSwzMy42ODM5IDI4LjQ2OTUsMzQuMjMxOSAyNy45MzY1LDM0LjM3NjkgTDIzLjkxNzUsMzUuNDY2OSBMMjMuMzk0NSwzMy41MzY5IEwyNC45NjI1LDMzLjExMTkgTDE3LjY2NjUsMjkuMjYxOSBMMTguNjAwNSwyNy40OTE5IEwyNi4xMDg1LDMxLjQ1NDkgTDI1LjYyMDUsMjkuNjUxOSBMMjcuNTUwNSwyOS4xMjg5IEwyOC42Mzk1LDMzLjE0OTkgWiBNMzIuMDAxNSwyNS42MjU5IEwzNS4yNTE1LDI1LjYyNTkgTDM1LjI1MTUsMjIuMzc1OSBMMzIuMDAxNSwyMi4zNzU5IEwzMi4wMDE1LDI1LjYyNTkgWiBNMzYuMjUxNSwyMC4zNzU5IEwzMS4wMDE1LDIwLjM3NTkgQzMwLjQ0ODUsMjAuMzc1OSAzMC4wMDE1LDIwLjgyMjkgMzAuMDAxNSwyMS4zNzU5IEwzMC4wMDE1LDI2LjYyNTkgQzMwLjAwMTUsMjcuMTc4OSAzMC40NDg1LDI3LjYyNTkgMzEuMDAxNSwyNy42MjU5IEwzNi4yNTE1LDI3LjYyNTkgQzM2LjgwNDUsMjcuNjI1OSAzNy4yNTE1LDI3LjE3ODkgMzcuMjUxNSwyNi42MjU5IEwzNy4yNTE1LDIxLjM3NTkgQzM3LjI1MTUsMjAuODIyOSAzNi44MDQ1LDIwLjM3NTkgMzYuMjUxNSwyMC4zNzU5IEwzNi4yNTE1LDIwLjM3NTkgWiIvPiYjeGE7ICAgIDwvZz4mI3hhOzwvc3ZnPg==;movable=1;resizable=1;rotatable=1;deletable=1;editable=1;locked=0;connectable=1;" parent="0X6cPKjye94rvXZ-Qh8z-17" vertex="1">
          <mxGeometry x="82.49999999999989" y="11.5" width="60" height="60" as="geometry" />
        </mxCell>
        <mxCell id="0X6cPKjye94rvXZ-Qh8z-23" value="backend&lt;br&gt;svc" style="sketch=0;html=1;dashed=0;whitespace=wrap;fillColor=#2875E2;strokeColor=#ffffff;points=[[0.005,0.63,0],[0.1,0.2,0],[0.9,0.2,0],[0.5,0,0],[0.995,0.63,0],[0.72,0.99,0],[0.5,1,0],[0.28,0.99,0]];verticalLabelPosition=bottom;align=center;verticalAlign=top;shape=mxgraph.kubernetes.icon;prIcon=svc" parent="1" vertex="1">
          <mxGeometry x="540" y="286" width="50" height="48" as="geometry" />
        </mxCell>
        <mxCell id="0X6cPKjye94rvXZ-Qh8z-25" value="backend&lt;br&gt;deploy" style="sketch=0;html=1;dashed=0;whitespace=wrap;fillColor=#2875E2;strokeColor=#ffffff;points=[[0.005,0.63,0],[0.1,0.2,0],[0.9,0.2,0],[0.5,0,0],[0.995,0.63,0],[0.72,0.99,0],[0.5,1,0],[0.28,0.99,0]];verticalLabelPosition=bottom;align=center;verticalAlign=top;shape=mxgraph.kubernetes.icon;prIcon=deploy" parent="1" vertex="1">
          <mxGeometry x="630" y="286" width="50" height="48" as="geometry" />
        </mxCell>
        <mxCell id="0X6cPKjye94rvXZ-Qh8z-26" value="backend pod" style="sketch=0;html=1;dashed=0;whitespace=wrap;fillColor=#2875E2;strokeColor=#ffffff;points=[[0.005,0.63,0],[0.1,0.2,0],[0.9,0.2,0],[0.5,0,0],[0.995,0.63,0],[0.72,0.99,0],[0.5,1,0],[0.28,0.99,0]];verticalLabelPosition=bottom;align=center;verticalAlign=top;shape=mxgraph.kubernetes.icon;prIcon=pod" parent="1" vertex="1">
          <mxGeometry x="720" y="250" width="50" height="48" as="geometry" />
        </mxCell>
        <mxCell id="0X6cPKjye94rvXZ-Qh8z-28" value="backend pod" style="sketch=0;html=1;dashed=0;whitespace=wrap;fillColor=#2875E2;strokeColor=#ffffff;points=[[0.005,0.63,0],[0.1,0.2,0],[0.9,0.2,0],[0.5,0,0],[0.995,0.63,0],[0.72,0.99,0],[0.5,1,0],[0.28,0.99,0]];verticalLabelPosition=bottom;align=center;verticalAlign=top;shape=mxgraph.kubernetes.icon;prIcon=pod" parent="1" vertex="1">
          <mxGeometry x="720" y="330" width="50" height="48" as="geometry" />
        </mxCell>
        <mxCell id="0X6cPKjye94rvXZ-Qh8z-30" style="edgeStyle=orthogonalEdgeStyle;rounded=0;orthogonalLoop=1;jettySize=auto;html=1;exitX=0.995;exitY=0.63;exitDx=0;exitDy=0;exitPerimeter=0;entryX=0.005;entryY=0.63;entryDx=0;entryDy=0;entryPerimeter=0;" parent="1" source="0X6cPKjye94rvXZ-Qh8z-25" target="0X6cPKjye94rvXZ-Qh8z-26" edge="1">
          <mxGeometry relative="1" as="geometry" />
        </mxCell>
        <mxCell id="0X6cPKjye94rvXZ-Qh8z-31" style="edgeStyle=orthogonalEdgeStyle;rounded=0;orthogonalLoop=1;jettySize=auto;html=1;exitX=0.995;exitY=0.63;exitDx=0;exitDy=0;exitPerimeter=0;entryX=0.005;entryY=0.63;entryDx=0;entryDy=0;entryPerimeter=0;" parent="1" source="0X6cPKjye94rvXZ-Qh8z-25" target="0X6cPKjye94rvXZ-Qh8z-28" edge="1">
          <mxGeometry relative="1" as="geometry" />
        </mxCell>
        <mxCell id="0X6cPKjye94rvXZ-Qh8z-32" style="edgeStyle=orthogonalEdgeStyle;rounded=0;orthogonalLoop=1;jettySize=auto;html=1;exitX=0.995;exitY=0.63;exitDx=0;exitDy=0;exitPerimeter=0;entryX=0.005;entryY=0.63;entryDx=0;entryDy=0;entryPerimeter=0;" parent="1" source="0X6cPKjye94rvXZ-Qh8z-23" target="0X6cPKjye94rvXZ-Qh8z-25" edge="1">
          <mxGeometry relative="1" as="geometry" />
        </mxCell>
        <mxCell id="0X6cPKjye94rvXZ-Qh8z-33" style="rounded=0;orthogonalLoop=1;jettySize=auto;html=1;entryX=0.005;entryY=0.63;entryDx=0;entryDy=0;entryPerimeter=0;" parent="1" source="0X6cPKjye94rvXZ-Qh8z-1" target="0X6cPKjye94rvXZ-Qh8z-23" edge="1">
          <mxGeometry relative="1" as="geometry" />
        </mxCell>
        <mxCell id="0X6cPKjye94rvXZ-Qh8z-37" value="argocd" style="shape=image;verticalLabelPosition=bottom;labelBackgroundColor=default;verticalAlign=top;aspect=fixed;imageAspect=0;image=data:image/svg+xml,PHN2ZyB4bWxuczp4bGluaz0iaHR0cDovL3d3dy53My5vcmcvMTk5OS94bGluayIgeG1sbnM9Imh0dHA6Ly93d3cudzMub3JnLzIwMDAvc3ZnIiB2aWV3Qm94PSIwIDAgMTI4IDEyOCI+PGRlZnM+PGNsaXBQYXRoIGlkPSJhcmdvY2Qtb3JpZ2luYWwtZSI+PHBhdGggZD0iTTQyIDQxaDQ0djUxSDQyem0wIDAiLz48L2NsaXBQYXRoPjxjbGlwUGF0aCBpZD0iYXJnb2NkLW9yaWdpbmFsLWQiPjxwYXRoIGQ9Ik0wIDBoMTI4djEyOEgweiIvPjwvY2xpcFBhdGg+PGNsaXBQYXRoIGlkPSJhcmdvY2Qtb3JpZ2luYWwtYyI+PHBhdGggZD0iTTAgMGgxMjh2MTI4SDB6Ii8+PC9jbGlwUGF0aD48Y2xpcFBhdGggaWQ9ImFyZ29jZC1vcmlnaW5hbC1mIj48cGF0aCBkPSJNODUuNjk1IDQxLjEzM2wtMi41NSA1OC4yMzhINDQuODg3bC0yLjEyNS01OC4yMzgiLz48L2NsaXBQYXRoPjxjbGlwUGF0aCBpZD0iYXJnb2NkLW9yaWdpbmFsLWIiPjxwYXRoIGQ9Ik0wIDBoMTI4djEyOEgweiIvPjwvY2xpcFBhdGg+PG1hc2sgaWQ9ImFyZ29jZC1vcmlnaW5hbC1sIj48ZyBmaWx0ZXI9InVybCgjYXJnb2NkLW9yaWdpbmFsLWEpIj48cGF0aCBmaWxsLW9wYWNpdHk9Ii4yNTEiIGQ9Ik0wIDBoMTI4djEyOEgweiIvPjwvZz48L21hc2s+PG1hc2sgaWQ9ImFyZ29jZC1vcmlnaW5hbC1oIj48ZyBmaWx0ZXI9InVybCgjYXJnb2NkLW9yaWdpbmFsLWEpIj48cGF0aCBmaWxsLW9wYWNpdHk9Ii4yMiIgZD0iTTAgMGgxMjh2MTI4SDB6Ii8+PC9nPjwvbWFzaz48bWFzayBpZD0iYXJnb2NkLW9yaWdpbmFsLWoiPjxnIGZpbHRlcj0idXJsKCNhcmdvY2Qtb3JpZ2luYWwtYSkiPjxwYXRoIGZpbGwtb3BhY2l0eT0iLjUwMiIgZD0iTTAgMGgxMjh2MTI4SDB6Ii8+PC9nPjwvbWFzaz48ZyBjbGlwLXBhdGg9InVybCgjYXJnb2NkLW9yaWdpbmFsLWIpIiBpZD0iYXJnb2NkLW9yaWdpbmFsLWkiPjxwYXRoIGZpbGw9IiNmYmRmYzMiIGQ9Ik01OC40ODggMzAuNTA4YTIuOTc0IDIuOTc0IDAgMTEtNS45NDgtLjAwMyAyLjk3NCAyLjk3NCAwIDAxNS45NDguMDAzem0wIDAiLz48L2c+PGcgY2xpcC1wYXRoPSJ1cmwoI2FyZ29jZC1vcmlnaW5hbC1jKSIgaWQ9ImFyZ29jZC1vcmlnaW5hbC1nIj48cGF0aCBmaWxsPSIjZTM0ZTNiIiBkPSJNODQuNDIyIDY1LjM2M3MyLjU1LTIyLjUzMS0uODUyLTMxLjAzMUM3Ny4xOTUgMTkuNDUzIDYyLjMxNiAyMC43MyA2Mi4zMTYgMjAuNzNzOC41IDMuMzk5IDguOTI2IDE2LjE1M2MuNDI2IDguOTI2IDAgMjIuMTA1IDAgMjIuMTA1em0wIDAiLz48L2c+PGcgY2xpcC1wYXRoPSJ1cmwoI2FyZ29jZC1vcmlnaW5hbC1kKSIgaWQ9ImFyZ29jZC1vcmlnaW5hbC1rIj48cGF0aCBmaWxsPSIjZTk2NTRiIiBkPSJNODMuMTQ1IDkwLjg2N1Y4Ny40N2MtNS45NSAzLjM5OC0xMi4zMjkgNi44LTE5Ljk3NyA2LjgtOC41MDQgMC0xNC4wMzEtMy44MjQtMTkuNTU1LTYuOGwuNDIyIDMuMzk4czYuMzggNi44MDUgMTkuNTU1IDYuODA1YzEyLjMyOC0uNDI2IDE5LjU1NS02LjgwNSAxOS41NTUtNi44MDV6bTAgMCIvPjwvZz48ZmlsdGVyIGhlaWdodD0iMTAwJSIgd2lkdGg9IjEwMCUiIHk9IjAlIiB4PSIwJSIgZmlsdGVyVW5pdHM9Im9iamVjdEJvdW5kaW5nQm94IiBpZD0iYXJnb2NkLW9yaWdpbmFsLWEiPjxmZUNvbG9yTWF0cml4IHZhbHVlcz0iMCAwIDAgMCAxIDAgMCAwIDAgMSAwIDAgMCAwIDEgMCAwIDAgMSAwIiBpbj0iU291cmNlR3JhcGhpYyIvPjwvZmlsdGVyPjwvZGVmcz48cGF0aCBmaWxsPSIjZTk2NTRiIiBkPSJNNDQuMDM1IDg5LjU5NHMtLjg0NyAyLjU1LTIuMTI1IDMuODI0YTMuODQ0IDMuODQ0IDAgMDEtMi45NzIgMS4yNzcgNDkuOTQ2IDQ5Ljk0NiAwIDAxLTYuMzggMS4yNzRzMi45NzcuNDI2IDYuMzguODUxYzEuMjczIDAgMS4yNzMgMCAyLjEyNC40MjYgMi4xMjYgMCAyLjk3My0xLjI3NyAyLjk3My0xLjI3N3ptMzkuMTEgMHMuODUxIDIuNTUgMi4xMjUgMy44MjRhMy44NTggMy44NTggMCAwMDIuOTc2IDEuMjc3IDQ5LjggNDkuOCAwIDAwNi4zNzUgMS4yNzRzLTIuOTczLjQyNi02LjguODUxYy0xLjI3NCAwLTEuMjc0IDAtMi4xMjYuNDI2LTIuNTUgMC0yLjk3Ni0xLjI3Ny0yLjk3Ni0xLjI3N3ptMCAwIi8+PHBhdGggZmlsbD0iI2I2Y2ZlYSIgZD0iTTEwOS45MjYgNDcuNTA4YzAgMjUuMzU1LTIwLjU1NSA0NS45MS00NS45MSA0NS45MS0yNS4zNTYgMC00NS45MS0yMC41NTUtNDUuOTEtNDUuOTEgMC0yNS4zNTIgMjAuNTU0LTQ1LjkwNiA0NS45MS00NS45MDYgMjUuMzU1IDAgNDUuOTEgMjAuNTU0IDQ1LjkxIDQ1LjkwNnptMCAwIi8+PHBhdGggZmlsbD0iI2U2ZjVmOCIgZD0iTTEwOC4yMjcgNDcuNTA4YzAgMjQuNDE4LTE5Ljc5MyA0NC4yMS00NC4yMTEgNDQuMjEtMjQuNDE0IDAtNDQuMjA3LTE5Ljc5Mi00NC4yMDctNDQuMjFDMTkuODA5IDIzLjA5NCAzOS42MDIgMy4zIDY0LjAxNiAzLjNjMjQuNDE4IDAgNDQuMjEgMTkuNzkzIDQ0LjIxIDQ0LjIwN3ptMCAwIi8+PHBhdGggZmlsbD0iI2QwZThmMCIgZD0iTTEwMC4xNDggNDguMzZjMCAxOS45NTYtMTYuMTc1IDM2LjEzMi0zNi4xMzIgMzYuMTMyLTE5Ljk1NCAwLTM2LjEzMy0xNi4xNzYtMzYuMTMzLTM2LjEzMyAwLTE5Ljk1MyAxNi4xOC0zNi4xMzIgMzYuMTMzLTM2LjEzMiAxOS45NTcgMCAzNi4xMzIgMTYuMTggMzYuMTMyIDM2LjEzMnptMCAwIi8+PHBhdGggZmlsbD0iI2VlNzk0YiIgZD0iTTQyLjc2MiA2NS4zNjNzMi45NzYgNDguMDM1IDIuOTc2IDQ4Ljg4N2MwIC40MjIuNDI2IDEuMjczLTEuNzAzIDIuMTI1LTIuMTI1Ljg0OC04LjkyNiAyLjU1LTguOTI2IDIuNTVoMTAuMjAzYzQuNjc2IDAgNC42NzYtMy44MjcgNC42NzYtNC42NzUgMC0uODUyIDEuMjc0LTE5LjEyOSAxLjI3NC0xOS4xMjlzLjQyNSAyMS42OC40MjUgMjIuNTI3YzAgLjg1Mi0uNDI1IDIuMTI1LTMuMzk4IDIuOTc3LTIuMTI1LjQyNi04LjUwNCAxLjctOC41MDQgMS43aDkuNzc4YzUuOTUzIDAgNS45NTMtMy44MjUgNS45NTMtMy44MjVsMS4yNzMtMTkuMTI5cy40MjYgMTkuMTI5LjQyNiAyMS4yNTRjMCAxLjctMS4yNzQgMi45NzctNS45NTMgMy44MjQtMi45NzMuODUyLTYuODAxIDEuNzAzLTYuODAxIDEuNzAzaDExLjA1NWM1LjUyMy0uNDI1IDYuMzc1LTQuMjU0IDYuMzc1LTQuMjU0bDkuMzUxLTQ3LjYwOXptMCAwIi8+PHBhdGggZmlsbD0iI2VlNzk0YiIgZD0iTTg1LjI3IDY1LjM2M3MtMi45NzMgNDguMDM1LTIuOTczIDQ4Ljg4N2MwIC40MjItLjQyNiAxLjI3MyAxLjcgMi4xMjUgMi4xMjQuODQ4IDguOTI1IDIuNTUgOC45MjUgMi41NUg4Mi43MTljLTQuNjc2IDAtNC42NzYtMy44MjctNC42NzYtNC42NzUgMC0uODUyLTEuMjczLTE5LjEyOS0xLjI3My0xOS4xMjlzLS40MjYgMjEuNjgtLjQyNiAyMi41MjdjMCAuODUyLjQyNiAyLjEyNSAzLjQwMiAyLjk3N2w4LjUgMS43SDc4LjQ3Yy01Ljk1IDAtNS45NS0zLjgyNS01Ljk1LTMuODI1bC0xLjI3Ny0xOS4xMjlzLS40MjYgMTkuMTI5LS40MjYgMjEuMjU0YzAgMS43IDEuMjc4IDIuOTc3IDUuOTU0IDMuODI0IDIuOTc2Ljg1MiA2LjggMS43MDMgNi44IDEuNzAzSDcyLjUyYy01LjUyOC0uNDI1LTYuMzgtNC4yNTQtNi4zOC00LjI1NEw1Ni43OSA3NC4yOXptLjQyNS0yMy4zNzljMCAxMS45MDMtOS43NzcgMjEuMjU0LTIxLjI1NCAyMS4yNTQtMTEuNDc2IDAtMjEuMjU0LTkuNzc3LTIxLjI1NC0yMS4yNTQgMC0xMS40NzYgOS43NzgtMjEuMjU0IDIxLjI1NC0yMS4yNTQgMTEuNDc3IDAgMjEuMjU0IDkuMzUyIDIxLjI1NCAyMS4yNTR6bTAgMCIvPjxnIGNsaXAtcGF0aD0idXJsKCNhcmdvY2Qtb3JpZ2luYWwtZSkiPjxnIGNsaXAtcGF0aD0idXJsKCNhcmdvY2Qtb3JpZ2luYWwtZikiPjxwYXRoIGZpbGw9IiNlZTc5NGIiIGQ9Ik0xMDIuMjczIDUzLjQ2YzAgMjAuODk1LTE2LjkzNyAzNy44MzMtMzcuODMyIDM3LjgzMy0yMC44OTQgMC0zNy44MzItMTYuOTM4LTM3LjgzMi0zNy44MzIgMC0yMC44OTUgMTYuOTM4LTM3LjgzMiAzNy44MzItMzcuODMyIDIwLjg5NSAwIDM3LjgzMiAxNi45MzcgMzcuODMyIDM3LjgzMnptMCAwIi8+PC9nPjwvZz48dXNlIG1hc2s9InVybCgjYXJnb2NkLW9yaWdpbmFsLWgpIiB4bGluazpocmVmPSIjYXJnb2NkLW9yaWdpbmFsLWciLz48dXNlIG1hc2s9InVybCgjYXJnb2NkLW9yaWdpbmFsLWopIiB4bGluazpocmVmPSIjYXJnb2NkLW9yaWdpbmFsLWkiLz48cGF0aCBmaWxsPSIjMDEwMTAxIiBkPSJNNzEuNjY4IDczLjg2M2MwIDcuMjI3LTMuNDAyIDExLjkwNy03LjY1MiAxMS45MDdzLTcuNjUzLTUuNTI4LTcuNjUzLTEyLjc1NGMwIDAgMy40MDMgNi44IDguMDc4IDYuOCA0LjY3NiAwIDcuMjI3LTUuOTUzIDcuMjI3LTUuOTUzem0wIDAiLz48cGF0aCBmaWxsPSIjZmZmIiBkPSJNNzEuNjY4IDczLjg2M2MwIDQuNjgtMy40MDIgNy4yMjctNy42NTIgNy4yMjdzLTcuMjI3LTMuMzk5LTcuMjI3LTcuNjQ5YzAgMCAzLjQwMiA0LjI1IDguMDc4IDQuMjUgNC42NzYgMCA2LjgwMS0zLjgyOCA2LjgwMS0zLjgyOHptMCAwIi8+PHBhdGggZmlsbD0iI2U5NjU0YiIgZD0iTTkyLjA3IDUzLjg4N2MwIDcuMjc3LTUuODk4IDEzLjE3NS0xMy4xNzUgMTMuMTc1LTcuMjc4IDAtMTMuMTgtNS44OTgtMTMuMTgtMTMuMTc1IDAtNy4yNzggNS45MDItMTMuMTggMTMuMTgtMTMuMTggNy4yNzcgMCAxMy4xNzUgNS45MDIgMTMuMTc1IDEzLjE4em0tMjkuNzU0IDBjMCA3LjI3Ny01LjkwMiAxMy4xNzUtMTMuMTggMTMuMTc1LTcuMjc3IDAtMTMuMTc1LTUuODk4LTEzLjE3NS0xMy4xNzUgMC03LjI3OCA1Ljg5OC0xMy4xOCAxMy4xNzYtMTMuMTggNy4yNzcgMCAxMy4xOCA1LjkwMiAxMy4xOCAxMy4xOHptMCAwIi8+PHBhdGggZmlsbD0iI2ZmZiIgZD0iTTg5LjA5OCA1My44ODdjMCA1LjYzMy00LjU3IDEwLjIwMy0xMC4yMDMgMTAuMjAzLTUuNjMzIDAtMTAuMjA0LTQuNTctMTAuMjA0LTEwLjIwMyAwLTUuNjM3IDQuNTctMTAuMjAzIDEwLjIwNC0xMC4yMDMgNS42MzIgMCAxMC4yMDMgNC41NjYgMTAuMjAzIDEwLjIwM3ptLTMwLjYxIDBjMCA1LjYzMy00LjU2NiAxMC4yMDMtMTAuMTk5IDEwLjIwMy01LjYzNyAwLTEwLjIwMy00LjU3LTEwLjIwMy0xMC4yMDNhMTAuMjAxIDEwLjIwMSAwIDAxMTAuMjAzLTEwLjIwM2M1LjYzMyAwIDEwLjIgNC41NjYgMTAuMiAxMC4yMDN6bTAgMCIvPjxwYXRoIGZpbGw9IiMwMTAxMDEiIGQ9Ik01MS4yNjIgNTIuNjFhMi45NzUgMi45NzUgMCAxMS01Ljk1LjAwMyAyLjk3NSAyLjk3NSAwIDAxNS45NS0uMDA0em0zMC42MDkgMGEyLjk3NiAyLjk3NiAwIDExLTUuOTUxLjAwMSAyLjk3NiAyLjk3NiAwIDAxNS45NTEtLjAwMnptMCAwIi8+PHBhdGggZmlsbD0iI2I2Y2ZlYSIgZD0iTTE3LjI1OCA1OC45ODhhMi4wMDUgMi4wMDUgMCAwMS0yLjEyNS0yLjEyNVYzOS44NmEyLjAwOCAyLjAwOCAwIDAxLjU4Mi0xLjU0MyAyLjAwOCAyLjAwOCAwIDAxMS41NDMtLjU4MiAyLjAwNSAyLjAwNSAwIDAxMi4xMjUgMi4xMjV2MTcuMDA0Yy4wMzUuNTctLjE4IDEuMTMzLS41ODYgMS41NGEyLjAwOCAyLjAwOCAwIDAxLTEuNTQuNTg1em05Mi42NjggMGEyLjAwMyAyLjAwMyAwIDAxLTEuNTQtLjU4NiAyLjAwOCAyLjAwOCAwIDAxLS41ODUtMS41MzlWMzkuODZhMi4wMTEgMi4wMTEgMCAwMS41ODYtMS41NDMgMiAyIDAgMDExLjUzOS0uNTgyIDIgMiAwIDAxMS41MzkuNTgyYy40MS40MDcuNjIuOTcuNTg2IDEuNTQzdjE3LjAwNGExLjk5NCAxLjk5NCAwIDAxLS41ODYgMS41NCAyLjAwMyAyLjAwMyAwIDAxLTEuNTQuNTg1em0wIDAiLz48cGF0aCBmaWxsPSIjZmZmIiBkPSJNNTEuNjg4IDEzLjUwNGEyLjEyNSAyLjEyNSAwIDExLTQuMjUgMCAyLjEyNSAyLjEyNSAwIDAxNC4yNSAwek0zNC4yNjIgNzAuODlhMS41NTkgMS41NTkgMCAwMS0xLjI3OC0uNDI1Yy01LjEwMS02LjM3NS03LjY1Mi0xNC40NTMtNy42NTItMjIuNTMxYTM3LjkzMyAzNy45MzMgMCAwMTUuMTAyLTE5LjEzIDQxLjY0MSA0MS42NDEgMCAwMTEzLjYwMS0xMy42IDEuODczIDEuODczIDAgMDEyLjEzLjQyNSAxLjg3NCAxLjg3NCAwIDAxLS40MjcgMi4xMjUgMzQuMzA1IDM0LjMwNSAwIDAwLTE3LjQzIDI5Ljc1NCAzMy40ODcgMzMuNDg3IDAgMDA3LjIyNyAyMC44MzJjLjQyNi40MjYuNDI2IDEuNy0uNDI2IDIuMTI1LS40MjUuNDI2LS40MjUuNDI2LS44NDcuNDI2em0wIDAiLz48dXNlIG1hc2s9InVybCgjYXJnb2NkLW9yaWdpbmFsLWwpIiB4bGluazpocmVmPSIjYXJnb2NkLW9yaWdpbmFsLWsiLz48L3N2Zz4=;" parent="1" vertex="1">
          <mxGeometry x="615" y="672.5" width="59" height="59" as="geometry" />
        </mxCell>
        <mxCell id="0X6cPKjye94rvXZ-Qh8z-54" style="edgeStyle=orthogonalEdgeStyle;rounded=0;orthogonalLoop=1;jettySize=auto;html=1;entryX=0;entryY=0.5;entryDx=0;entryDy=0;" parent="1" target="0X6cPKjye94rvXZ-Qh8z-37" edge="1">
          <mxGeometry relative="1" as="geometry">
            <mxPoint x="584" y="702" as="sourcePoint" />
          </mxGeometry>
        </mxCell>
        <mxCell id="0X6cPKjye94rvXZ-Qh8z-46" style="edgeStyle=orthogonalEdgeStyle;rounded=0;orthogonalLoop=1;jettySize=auto;html=1;exitX=0.5;exitY=1;exitDx=0;exitDy=0;exitPerimeter=0;" parent="1" source="0X6cPKjye94rvXZ-Qh8z-45" target="0X6cPKjye94rvXZ-Qh8z-23" edge="1">
          <mxGeometry relative="1" as="geometry" />
        </mxCell>
        <mxCell id="0X6cPKjye94rvXZ-Qh8z-45" value="" style="sketch=0;html=1;dashed=0;whitespace=wrap;fillColor=#2875E2;strokeColor=#ffffff;points=[[0.005,0.63,0],[0.1,0.2,0],[0.9,0.2,0],[0.5,0,0],[0.995,0.63,0],[0.72,0.99,0],[0.5,1,0],[0.28,0.99,0]];verticalLabelPosition=bottom;align=center;verticalAlign=top;shape=mxgraph.kubernetes.icon;prIcon=ing" parent="1" vertex="1">
          <mxGeometry x="540" y="216" width="50" height="48" as="geometry" />
        </mxCell>
        <mxCell id="0X6cPKjye94rvXZ-Qh8z-47" value="AWS LBC backend ingress" style="text;html=1;strokeColor=none;fillColor=none;align=center;verticalAlign=middle;whiteSpace=wrap;rounded=0;" parent="1" vertex="1">
          <mxGeometry x="586" y="223" width="103" height="30" as="geometry" />
        </mxCell>
        <mxCell id="0X6cPKjye94rvXZ-Qh8z-71" style="edgeStyle=orthogonalEdgeStyle;rounded=0;orthogonalLoop=1;jettySize=auto;html=1;" parent="1" source="0X6cPKjye94rvXZ-Qh8z-48" target="0X6cPKjye94rvXZ-Qh8z-41" edge="1">
          <mxGeometry relative="1" as="geometry" />
        </mxCell>
        <mxCell id="0X6cPKjye94rvXZ-Qh8z-58" style="rounded=0;orthogonalLoop=1;jettySize=auto;html=1;entryX=0.005;entryY=0.63;entryDx=0;entryDy=0;entryPerimeter=0;" parent="1" source="0X6cPKjye94rvXZ-Qh8z-1" target="0X6cPKjye94rvXZ-Qh8z-41" edge="1">
          <mxGeometry relative="1" as="geometry" />
        </mxCell>
        <mxCell id="0X6cPKjye94rvXZ-Qh8z-59" value="ingress-nginx" style="fillColor=none;strokeColor=#5A6C86;dashed=1;verticalAlign=top;fontStyle=0;fontColor=#5A6C86;whiteSpace=wrap;html=1;" parent="1" vertex="1">
          <mxGeometry x="317" y="439" width="151" height="144" as="geometry" />
        </mxCell>
        <mxCell id="0X6cPKjye94rvXZ-Qh8z-67" style="edgeStyle=orthogonalEdgeStyle;rounded=0;orthogonalLoop=1;jettySize=auto;html=1;" parent="1" source="0X6cPKjye94rvXZ-Qh8z-60" target="0X6cPKjye94rvXZ-Qh8z-62" edge="1">
          <mxGeometry relative="1" as="geometry" />
        </mxCell>
        <mxCell id="0X6cPKjye94rvXZ-Qh8z-60" value="NGINX ingress controller" style="shape=image;verticalLabelPosition=bottom;labelBackgroundColor=default;verticalAlign=top;aspect=fixed;imageAspect=0;image=data:image/svg+xml,PHN2ZyB4bWxuczp4bGluaz0iaHR0cDovL3d3dy53My5vcmcvMTk5OS94bGluayIgeG1sbnM9Imh0dHA6Ly93d3cudzMub3JnLzIwMDAvc3ZnIiB4bWw6c3BhY2U9InByZXNlcnZlIiBzdHlsZT0iZW5hYmxlLWJhY2tncm91bmQ6bmV3IDAgMCAzMTggMzYxOyIgdmlld0JveD0iMCAwIDMxOCAzNjEiIHk9IjBweCIgeD0iMHB4IiB2ZXJzaW9uPSIxLjEiPiYjeGE7PHN0eWxlIHR5cGU9InRleHQvY3NzIj4mI3hhOwkuc3Qwe2ZpbGw6I0ZGRkZGRjt9JiN4YTsJLnN0MXtmaWxsOiM5ODk4OTg7fSYjeGE7CS5zdDJ7ZmlsbDojMDA5NjM5O30mI3hhOwkuc3Qze2ZpbGw6bm9uZTtzdHJva2U6I0ZGRkZGRjtzdHJva2Utd2lkdGg6MTIuMDQ4MztzdHJva2UtbGluZWNhcDpyb3VuZDtzdHJva2UtbGluZWpvaW46cm91bmQ7c3Ryb2tlLW1pdGVybGltaXQ6MTA7fSYjeGE7CS5zdDR7ZmlsbDpub25lO3N0cm9rZTojRkZGRkZGO3N0cm9rZS13aWR0aDo4LjAxMjE7c3Ryb2tlLWxpbmVjYXA6cm91bmQ7c3Ryb2tlLWxpbmVqb2luOnJvdW5kO3N0cm9rZS1taXRlcmxpbWl0OjEwO30mI3hhOzwvc3R5bGU+JiN4YTs8ZyBpZD0iQXJ0Ij4mI3hhOzwvZz4mI3hhOzxnIGlkPSJMYXllcl8xIj4mI3hhOzwvZz4mI3hhOzxnIGlkPSJfeDNDX0xheWVyX3gzRV8iPiYjeGE7CTxnPiYjeGE7CQk8cGF0aCBkPSJNMzAwLjQ3NDcsMzI2LjU3MTJoMi4yOTY3di01LjExNTVoMS44MTY4YzEuMjAxLDAsMi4wNjI2LDAuMTE3MSwyLjU1MTgsMC40MjYxJiMxMDsmIzk7JiM5OyYjOTtjMC44MDMsMC40NzA2LDEuMjEyOCwxLjQ3OTYsMS4yMTI4LDIuOTc1NnYxLjA0ODlsMC4wNTE1LDAuMzkxYzAuMDI4MSwwLjA4NjYsMC4wMjgxLDAuMTIxNywwLjAzNTIsMC4xNjM5JiMxMDsmIzk7JiM5OyYjOTtjMC4wMTE3LDAuMDYzMiwwLjAxNjQsMC4wODE5LDAuMDUxNSwwLjExaDIuMTI4MWwtMC4wNzczLTAuMTQ1MmMtMC4wNjMyLTAuMDk4My0wLjA5ODMtMC4zMjA3LTAuMTAzLTAuNjY0OSYjMTA7JiM5OyYjOTsmIzk7Yy0wLjAzMDUtMC4zNjc2LTAuMDMwNS0wLjY4MTMtMC4wMzA1LTAuOTcxNnYtMC45NjkyYzAtMC42NTA4LTAuMjQzNC0xLjMxNTctMC43MTE3LTIuMDI3NSYjMTA7JiM5OyYjOTsmIzk7Yy0wLjQ4MjMtMC42ODU5LTEuMjQwOC0xLjA5MzMtMi4yNjYzLTEuMjczNmMwLjgxMDEtMC4xMzU4LDEuNDQ2OS0wLjM1MTIsMS44ODkzLTAuNjEzNCYjMTA7JiM5OyYjOTsmIzk7YzAuODY4Ni0wLjU0NzgsMS4yNjg5LTEuNDM3NSwxLjI2ODktMi41NzUzYzAtMS42MzY1LTAuNjQ2MS0yLjc1NTYtMi4wMDg3LTMuMzAzNGMtMC43NTE1LTAuMzA5MS0xLjkyOTEtMC40NjU5LTMuNTYwOS0wLjQ2NTkmIzEwOyYjOTsmIzk7JiM5O2gtNC41NDQyVjMyNi41NzEyeiBNMzA3LjAwNjYsMzE5LjU1NzFjLTAuNDYxMiwwLjE5OS0xLjE5NCwwLjI5MDMtMi4xODQzLDAuMjkwM2gtMi4wNTA4di00LjczNjJoMS45NTcyJiMxMDsmIzk7JiM5OyYjOTtjMS4yNjg5LDAsMi4xODksMC4xODAzLDIuNzYwMywwLjUwOGMwLjU4MjksMC4zMjU0LDAuODYzOSwwLjk1NTIsMC44NjM5LDEuODk4NyYjMTA7JiM5OyYjOTsmIzk7QzMwOC4zNTI4LDMxOC41MjQ2LDMwNy45MTQ5LDMxOS4xODQ4LDMwNy4wMDY2LDMxOS41NTcxIE0zMTMuNjc2NiwzMTEuNzM3NWMtMi4zMzY1LTIuMzA2MS01LjEzMTktMy40NDg1LTguNDM1My0zLjQ0ODUmIzEwOyYjOTsmIzk7JiM5O2MtMy4yMzMyLDAtNi4wNTQzLDEuMTQyNS04LjMzNjksMy40NDg1Yy0yLjMzNjUsMi4zMTMxLTMuNDY3Myw1LjExMDgtMy40NjczLDguMzk1NGMwLDMuMjgsMS4xMTkxLDYuMDg5NCwzLjQyNTEsOC4zOTA4JiMxMDsmIzk7JiM5OyYjOTtjMi4yODk2LDIuMzM2NSw1LjExNTQsMy40OTU0LDguMzc5MSwzLjQ5NTRjMy4zMDM0LDAsNi4wOTg4LTEuMTU4OSw4LjQzNTMtMy40OTU0YzIuMjg5Ny0yLjMxMzEsMy40NzE5LTUuMTM0MiwzLjQ3MTktOC4zOTA4JiMxMDsmIzk7JiM5OyYjOTtDMzE3LjE0ODUsMzE2LjgyNDksMzE1Ljk2NjMsMzE0LjA1MDYsMzEzLjY3NjYsMzExLjczNzUgTTMxMi40NzA5LDMxMi45MTUyYzEuOTk5MywxLjk1MjUsMi45Nzc5LDQuMzg3NCwyLjk3NzksNy4yMTc4JiMxMDsmIzk7JiM5OyYjOTtjMCwyLjgwMjQtMC45Nzg2LDUuMjU1OS0yLjk3NzksNy4yNTNjLTEuOTY5LDEuOTg3Ni00LjM4NzQsMy4wMDg0LTcuMjI5NiwzLjAwODRjLTIuODIxMSwwLTUuMjI1NS0xLjAyMDgtNy4yMjAyLTMuMDA4NCYjMTA7JiM5OyYjOTsmIzk7Yy0xLjk1NzItMS45OTctMi45NjM5LTQuNDUwNi0yLjk2MzktNy4yNTNjMC0yLjgzMDUsMS4wMDY3LTUuMjY1MywyLjk2MzktNy4yMTc4YzIuMDIyOC0yLjAzMjEsNC40MTc4LTMuMDI5NSw3LjIyMDItMy4wMjk1JiMxMDsmIzk7JiM5OyYjOTtDMzA4LjA3MTgsMzA5Ljg4NTcsMzEwLjQ3ODUsMzEwLjg4MywzMTIuNDcwOSwzMTIuOTE1MiIgY2xhc3M9InN0MSIvPiYjeGE7CQk8Zz4mI3hhOwkJCTxnPiYjeGE7CQkJCTxwYXRoIGQ9Ik0zLjExMjcsMjcwLjAwNTVjMS42OTI3LDIuOTM2MSw0LjA3OTIsNS4yMjY1LDYuODMyMSw2Ljc3OTdsMTM5Ljc2NDgsODAuNjkzMmwwLjAwNDQtMC4wMDQ0JiMxMDsmIzk7JiM5OyYjOTsmIzk7JiM5O2MyLjcyNjcsMS42MDU1LDUuODk4NCwyLjUyNiw5LjI4ODMsMi41MjZjMy4zODk5LDAsNi41NjU5LTAuOTIwNSw5LjI4ODMtMi41MjZsMTM5Ljc2OTEtODAuNjkzMiYjMTA7JiM5OyYjOTsmIzk7JiM5OyYjOTtjMi43NTI5LTEuNTUzMSw1LjEzMDYtMy44MzkyLDYuODI3Ny02Ljc3NTNjMS42OTcxLTIuOTM2MSwyLjQ4NjgtNi4xNDI3LDIuNDU2Mi05LjMwNTdWOTkuMzEzNGwtMC4wMDQ0LTAuMDA0NCYjMTA7JiM5OyYjOTsmIzk7JiM5OyYjOTtjMC4wMjYyLTMuMTU4Ni0wLjc2MzUtNi4zNjk2LTIuNDU2Mi05LjMwNTdjLTEuNjk3MS0yLjkzNjEtNC4wODM1LTUuMjIyMi02LjgzMi02Ljc3OTdMMTY4LjI4MTcsMi41MzA0VjIuNTI2JiMxMDsmIzk7JiM5OyYjOTsmIzk7JiM5O0MxNjUuNTU5NCwwLjkyMDUsMTYyLjM4NzcsMCwxNTguOTk3OCwwYy0zLjM4NTUsMC02LjU1NzIsMC45MjA1LTkuMjc5NiwyLjUyNnYwLjAwNDRMOS45NTM1LDgzLjIyMzYmIzEwOyYjOTsmIzk7JiM5OyYjOTsmIzk7Yy0yLjc1MjksMS41NTc1LTUuMTM5MywzLjg0MzYtNi44MzY0LDYuNzc5N2MtMS42OTI3LDIuOTM2MS0yLjQ4MjQsNi4xNDcxLTIuNDU2Miw5LjMwNTdsLTAuMDA0NCwwLjAwNDR2MTYxLjM4NjQmIzEwOyYjOTsmIzk7JiM5OyYjOTsmIzk7Yy0wLjAzMDUsMy4xNjMsMC43NTkxLDYuMzY5NiwyLjQ1MTksOS4zMDU3IiBjbGFzcz0ic3QyIi8+JiN4YTsJCQk8L2c+JiN4YTsJCQk8Zz4mI3hhOwkJCQk8cmVjdCBoZWlnaHQ9IjEyMi44MDY3IiB3aWR0aD0iMTIyLjgwNjciIGNsYXNzPSJzdDMiIHk9IjExOS4wMzgyIiB4PSI2MS44NDM3Ii8+JiN4YTsJCQkJPHJlY3QgaGVpZ2h0PSIzNS40NTQ4IiB3aWR0aD0iMzUuNDU0OCIgY2xhc3M9InN0NCIgeT0iMTA0Ljc5ODkiIHg9IjIyMC43MDE2Ii8+JiN4YTsJCQkJPHJlY3QgaGVpZ2h0PSIzNS40NTQ4IiB3aWR0aD0iMzUuNDU0OCIgY2xhc3M9InN0NCIgeT0iMTYyLjI3MjYiIHg9IjIyMC43MDE2Ii8+JiN4YTsJCQkJPHJlY3QgaGVpZ2h0PSIzNS40NTQ4IiB3aWR0aD0iMzUuNDU0OCIgY2xhc3M9InN0NCIgeT0iMjE5Ljc0NjIiIHg9IjIyMC43MDE2Ii8+JiN4YTsJCQkJPGc+JiN4YTsJCQkJCTxsaW5lIHkyPSIxODAuNDQxNiIgeDI9IjIxOC42MTg4IiB5MT0iMTgwLjQ0MTYiIHgxPSIxODcuNDM1NyIgY2xhc3M9InN0NCIvPiYjeGE7CQkJCQk8bGluZSB5Mj0iMjIyLjA4MDEiIHgyPSIyMjEuMTg1MiIgeTE9IjE5NS4xMTIzIiB4MT0iMTg1Ljc3NDciIGNsYXNzPSJzdDQiLz4mI3hhOwkJCQkJPGxpbmUgeTI9IjEzOC44MDMiIHgyPSIyMjEuMTg1MiIgeTE9IjE2NS43NzA5IiB4MT0iMTg1Ljc3NDciIGNsYXNzPSJzdDQiLz4mI3hhOwkJCQk8L2c+JiN4YTsJCQk8L2c+JiN4YTsJCTwvZz4mI3hhOwk8L2c+JiN4YTs8L2c+JiN4YTs8L3N2Zz4=;" parent="1" vertex="1">
          <mxGeometry x="367" y="480.92" width="52.99" height="60.15" as="geometry" />
        </mxCell>
        <mxCell id="0X6cPKjye94rvXZ-Qh8z-61" value="kodiko-codepod" style="fillColor=none;strokeColor=#5A6C86;dashed=1;verticalAlign=top;fontStyle=0;fontColor=#5A6C86;whiteSpace=wrap;html=1;" parent="1" vertex="1">
          <mxGeometry x="510" y="436" width="289" height="172" as="geometry" />
        </mxCell>
        <mxCell id="0X6cPKjye94rvXZ-Qh8z-69" style="edgeStyle=orthogonalEdgeStyle;rounded=0;orthogonalLoop=1;jettySize=auto;html=1;" parent="1" source="0X6cPKjye94rvXZ-Qh8z-62" target="0X6cPKjye94rvXZ-Qh8z-63" edge="1">
          <mxGeometry relative="1" as="geometry" />
        </mxCell>
        <mxCell id="0X6cPKjye94rvXZ-Qh8z-62" value="NGINX&lt;br&gt;codepod ingress" style="sketch=0;html=1;dashed=0;whitespace=wrap;fillColor=#2875E2;strokeColor=#ffffff;points=[[0.005,0.63,0],[0.1,0.2,0],[0.9,0.2,0],[0.5,0,0],[0.995,0.63,0],[0.72,0.99,0],[0.5,1,0],[0.28,0.99,0]];verticalLabelPosition=bottom;align=center;verticalAlign=top;shape=mxgraph.kubernetes.icon;prIcon=ing" parent="1" vertex="1">
          <mxGeometry x="542" y="487" width="50" height="48" as="geometry" />
        </mxCell>
        <mxCell id="0X6cPKjye94rvXZ-Qh8z-70" style="edgeStyle=orthogonalEdgeStyle;rounded=0;orthogonalLoop=1;jettySize=auto;html=1;" parent="1" source="0X6cPKjye94rvXZ-Qh8z-63" target="0X6cPKjye94rvXZ-Qh8z-64" edge="1">
          <mxGeometry relative="1" as="geometry" />
        </mxCell>
        <mxCell id="0X6cPKjye94rvXZ-Qh8z-63" value="codepod&lt;br&gt;svc" style="sketch=0;html=1;dashed=0;whitespace=wrap;fillColor=#2875E2;strokeColor=#ffffff;points=[[0.005,0.63,0],[0.1,0.2,0],[0.9,0.2,0],[0.5,0,0],[0.995,0.63,0],[0.72,0.99,0],[0.5,1,0],[0.28,0.99,0]];verticalLabelPosition=bottom;align=center;verticalAlign=top;shape=mxgraph.kubernetes.icon;prIcon=svc" parent="1" vertex="1">
          <mxGeometry x="634.5" y="487" width="50" height="48" as="geometry" />
        </mxCell>
        <mxCell id="0X6cPKjye94rvXZ-Qh8z-64" value="codepod" style="sketch=0;html=1;dashed=0;whitespace=wrap;fillColor=#2875E2;strokeColor=#ffffff;points=[[0.005,0.63,0],[0.1,0.2,0],[0.9,0.2,0],[0.5,0,0],[0.995,0.63,0],[0.72,0.99,0],[0.5,1,0],[0.28,0.99,0]];verticalLabelPosition=bottom;align=center;verticalAlign=top;shape=mxgraph.kubernetes.icon;prIcon=pod" parent="1" vertex="1">
          <mxGeometry x="725" y="487" width="50" height="48" as="geometry" />
        </mxCell>
        <mxCell id="0X6cPKjye94rvXZ-Qh8z-76" value="" style="group" parent="1" vertex="1" connectable="0">
          <mxGeometry x="532" y="776" width="135" height="48" as="geometry" />
        </mxCell>
        <mxCell id="0X6cPKjye94rvXZ-Qh8z-48" value="" style="sketch=0;html=1;dashed=0;whitespace=wrap;fillColor=#2875E2;strokeColor=#ffffff;points=[[0.005,0.63,0],[0.1,0.2,0],[0.9,0.2,0],[0.5,0,0],[0.995,0.63,0],[0.72,0.99,0],[0.5,1,0],[0.28,0.99,0]];verticalLabelPosition=bottom;align=center;verticalAlign=top;shape=mxgraph.kubernetes.icon;prIcon=ing" parent="0X6cPKjye94rvXZ-Qh8z-76" vertex="1">
          <mxGeometry width="50" height="48" as="geometry" />
        </mxCell>
        <mxCell id="0X6cPKjye94rvXZ-Qh8z-73" value="AWS LBC&lt;br style=&quot;border-color: var(--border-color);&quot;&gt;&lt;span style=&quot;&quot;&gt;argocd ingress&lt;/span&gt;" style="text;html=1;strokeColor=none;fillColor=none;align=center;verticalAlign=middle;whiteSpace=wrap;rounded=0;" parent="0X6cPKjye94rvXZ-Qh8z-76" vertex="1">
          <mxGeometry x="47" y="12" width="88" height="30" as="geometry" />
        </mxCell>
        <mxCell id="0X6cPKjye94rvXZ-Qh8z-77" value="" style="group" parent="1" vertex="1" connectable="0">
          <mxGeometry x="527" y="672.5" width="88" height="80.5" as="geometry" />
        </mxCell>
        <mxCell id="0X6cPKjye94rvXZ-Qh8z-41" value="" style="sketch=0;html=1;dashed=0;whitespace=wrap;fillColor=#2875E2;strokeColor=#ffffff;points=[[0.005,0.63,0],[0.1,0.2,0],[0.9,0.2,0],[0.5,0,0],[0.995,0.63,0],[0.72,0.99,0],[0.5,1,0],[0.28,0.99,0]];verticalLabelPosition=bottom;align=center;verticalAlign=top;shape=mxgraph.kubernetes.icon;prIcon=svc" parent="0X6cPKjye94rvXZ-Qh8z-77" vertex="1">
          <mxGeometry width="60" height="48" as="geometry" />
        </mxCell>
        <mxCell id="0X6cPKjye94rvXZ-Qh8z-72" value="argocd&lt;br style=&quot;border-color: var(--border-color);&quot;&gt;&lt;span style=&quot;&quot;&gt;svc&lt;/span&gt;" style="text;html=1;strokeColor=none;fillColor=none;align=center;verticalAlign=middle;whiteSpace=wrap;rounded=0;" parent="0X6cPKjye94rvXZ-Qh8z-77" vertex="1">
          <mxGeometry x="28" y="50.5" width="60" height="30" as="geometry" />
        </mxCell>
        <mxCell id="0X6cPKjye94rvXZ-Qh8z-79" value="external-secrets" style="fillColor=none;strokeColor=#5A6C86;dashed=1;verticalAlign=top;fontStyle=0;fontColor=#5A6C86;whiteSpace=wrap;html=1;" parent="1" vertex="1">
          <mxGeometry x="215" y="691" width="165" height="152" as="geometry" />
        </mxCell>
        <mxCell id="0X6cPKjye94rvXZ-Qh8z-84" value="External Secrets Operator" style="shape=image;verticalLabelPosition=bottom;labelBackgroundColor=default;verticalAlign=top;aspect=fixed;imageAspect=0;image=data:image/svg+xml,PHN2ZyB4bWxucz0iaHR0cDovL3d3dy53My5vcmcvMjAwMC9zdmciIHZpZXdCb3g9IjAgMCAxNjUuNDcgMTY1LjQ3Ij48ZGVmcz48c3R5bGU+LmR7ZmlsbDojMDMyZTQ5O30uZSwuZiwuZ3tmaWxsOiNmZmY7fS5mLC5oLC5pe3N0cm9rZS13aWR0aDo0cHg7fS5mLC5oLC5pLC5nLC5qe3N0cm9rZTojZmZmO30uZiwuaCwuaSwuantzdHJva2UtbGluZWNhcDpyb3VuZDt9LmgsLmksLmp7ZmlsbDpub25lO30uaSwuantzdHJva2UtbGluZWpvaW46cm91bmQ7fS5ne3N0cm9rZS1taXRlcmxpbWl0OjEwO30uantzdHJva2Utd2lkdGg6M3B4O308L3N0eWxlPjwvZGVmcz48ZyBpZD0iYSIvPjxnIGlkPSJiIj48ZyBpZD0iYyI+PGc+PGNpcmNsZSByPSI4Mi43MyIgY3k9IjgyLjczIiBjeD0iODIuNzMiIGNsYXNzPSJkIi8+PGc+PHBhdGggZD0iTTg0LjYyLDQ1LjcxYzQuOTEsMCw4LjksMy45OCw4LjksOC45IiBjbGFzcz0iaCIvPjxwYXRoIGQ9Ik01OS44Niw2Mi45OWMwLTEyLjY2LDEwLjI2LTIyLjkyLDIyLjkyLTIyLjkyczIyLjkyLDEwLjI2LDIyLjkyLDIyLjkyIiBjbGFzcz0iaSIvPjxnPjxwYXRoIGQ9Ik03Ni4yNSw5OC45NWMtLjIxLC4yOS0uNDMsLjQzLS42NSwuNDNzLS40NC0uMS0uNjYtLjI5Yy0uMjItLjE5LS4zMy0uMzgtLjMzLS41NnMuMDktLjM3LC4yNi0uNTZsMS42MS0yLjI2LTIuMTUtLjY5Yy0uNDItLjEzLS42My0uMzUtLjYzLS42NiwwLS4xNywuMDMtLjMyLC4wOS0uNDYsLjExLS40LC4zNS0uNiwuNzItLjYsLjA4LDAsLjIxLC4wMiwuNCwuMDZsMi4yMSwuNzJ2LTIuMzVjMC0uNTcsLjI5LS44NiwuODYtLjg2cy44NiwuMjksLjg2LC44NnYyLjM1bDIuMTUtLjcyYy4xOS0uMDQsLjM1LS4wNiwuNDktLjA2cy4yOSwuMSwuNDYsLjI5Yy4xNywuMTksLjI2LC40NCwuMjYsLjc2cy0uMjEsLjU0LS42MywuNjdsLTIuMTgsLjY5LDEuNjMsMi4yNmMuMTUsLjE3LC4yMywuMzUsLjIzLC41NHMtLjExLC4zOC0uMzMsLjU3Yy0uMjIsLjE5LS40MywuMjktLjY0LC4yOXMtLjQyLS4xNC0uNjMtLjQzbC0xLjY5LTIuMzgtMS42OSwyLjM4WiIgY2xhc3M9ImUiLz48cGF0aCBkPSJNNjYuNTcsOTguOTVjLS4yMSwuMjktLjQzLC40My0uNjUsLjQzcy0uNDQtLjEtLjY2LS4yOWMtLjIyLS4xOS0uMzMtLjM4LS4zMy0uNTZzLjA5LS4zNywuMjYtLjU2bDEuNjEtMi4yNi0yLjE1LS42OWMtLjQyLS4xMy0uNjMtLjM1LS42My0uNjYsMC0uMTcsLjAzLS4zMiwuMDktLjQ2LC4xMS0uNCwuMzUtLjYsLjcyLS42LC4wOCwwLC4yMSwuMDIsLjQsLjA2bDIuMjEsLjcydi0yLjM1YzAtLjU3LC4yOS0uODYsLjg2LS44NnMuODYsLjI5LC44NiwuODZ2Mi4zNWwyLjE1LS43MmMuMTktLjA0LC4zNS0uMDYsLjQ5LS4wNnMuMjksLjEsLjQ2LC4yOWMuMTcsLjE5LC4yNiwuNDQsLjI2LC43NnMtLjIxLC41NC0uNjMsLjY3bC0yLjE4LC42OSwxLjYzLDIuMjZjLjE1LC4xNywuMjMsLjM1LC4yMywuNTRzLS4xMSwuMzgtLjMzLC41N2MtLjIyLC4xOS0uNDMsLjI5LS42NCwuMjlzLS40Mi0uMTQtLjYzLS40M2wtMS42OS0yLjM4LTEuNjksMi4zOFoiIGNsYXNzPSJlIi8+PHBhdGggZD0iTTg1LjkyLDk4Ljk1Yy0uMjEsLjI5LS40MywuNDMtLjY1LC40M3MtLjQ0LS4xLS42Ni0uMjljLS4yMi0uMTktLjMzLS4zOC0uMzMtLjU2cy4wOS0uMzcsLjI2LS41NmwxLjYxLTIuMjYtMi4xNS0uNjljLS40Mi0uMTMtLjYzLS4zNS0uNjMtLjY2LDAtLjE3LC4wMy0uMzIsLjA5LS40NiwuMTEtLjQsLjM1LS42LC43Mi0uNiwuMDgsMCwuMjEsLjAyLC40LC4wNmwyLjIxLC43MnYtMi4zNWMwLS41NywuMjktLjg2LC44Ni0uODZzLjg2LC4yOSwuODYsLjg2djIuMzVsMi4xNS0uNzJjLjE5LS4wNCwuMzUtLjA2LC40OS0uMDZzLjI5LC4xLC40NiwuMjljLjE3LC4xOSwuMjYsLjQ0LC4yNiwuNzZzLS4yMSwuNTQtLjYzLC42N2wtMi4xOCwuNjksMS42MywyLjI2Yy4xNSwuMTcsLjIzLC4zNSwuMjMsLjU0cy0uMTEsLjM4LS4zMywuNTdjLS4yMiwuMTktLjQzLC4yOS0uNjQsLjI5cy0uNDItLjE0LS42My0uNDNsLTEuNjktMi4zOC0xLjY5LDIuMzhaIiBjbGFzcz0iZSIvPjxwYXRoIGQ9Ik05NS42LDk4Ljk1Yy0uMjEsLjI5LS40MywuNDMtLjY1LC40M3MtLjQ0LS4xLS42Ni0uMjljLS4yMi0uMTktLjMzLS4zOC0uMzMtLjU2cy4wOS0uMzcsLjI2LS41NmwxLjYxLTIuMjYtMi4xNS0uNjljLS40Mi0uMTMtLjYzLS4zNS0uNjMtLjY2LDAtLjE3LC4wMy0uMzIsLjA5LS40NiwuMTEtLjQsLjM1LS42LC43Mi0uNiwuMDgsMCwuMjEsLjAyLC40LC4wNmwyLjIxLC43MnYtMi4zNWMwLS41NywuMjktLjg2LC44Ni0uODZzLjg2LC4yOSwuODYsLjg2djIuMzVsMi4xNS0uNzJjLjE5LS4wNCwuMzUtLjA2LC40OS0uMDZzLjI5LC4xLC40NiwuMjljLjE3LC4xOSwuMjYsLjQ0LC4yNiwuNzZzLS4yMSwuNTQtLjYzLC42N2wtMi4xOCwuNjksMS42MywyLjI2Yy4xNSwuMTcsLjIzLC4zNSwuMjMsLjU0cy0uMTEsLjM4LS4zMywuNTdjLS4yMiwuMTktLjQzLC4yOS0uNjQsLjI5cy0uNDItLjE0LS42My0uNDNsLTEuNjktMi4zOC0xLjY5LDIuMzhaIiBjbGFzcz0iZSIvPjwvZz48cmVjdCByeT0iLjg3IiByeD0iLjg3IiBoZWlnaHQ9IjE0LjkzIiB3aWR0aD0iNTAuNDMiIHk9Ijg3LjY2IiB4PSI1Ny41NiIgY2xhc3M9ImoiLz48Zz48cGF0aCBkPSJNMzEuMTUsMTAxLjYxYzAtNC45MSwzLjk4LTguOSw4LjktOC45IiBjbGFzcz0iaCIvPjxwYXRoIGQ9Ik0yNC45NCwxMDguNzNjMC0zLjQzLDIuNzgtNi4yMiw2LjIyLTYuMjJzNi4yMiwyLjc4LDYuMjIsNi4yMiIgY2xhc3M9ImgiLz48bGluZSB5Mj0iMTAyLjg1IiB4Mj0iNDQuMyIgeTE9Ijg0LjEiIHgxPSI0NC4zIiBjbGFzcz0iaSIvPjwvZz48Zz48cGF0aCBkPSJNMTM0LjMxLDEwMS42MWMwLTQuOTEtMy45OC04LjktOC45LTguOSIgY2xhc3M9ImgiLz48cGF0aCBkPSJNMTQwLjUzLDEwOC43M2MwLTMuNDMtMi43OC02LjIyLTYuMjItNi4yMnMtNi4yMiwyLjc4LTYuMjIsNi4yMiIgY2xhc3M9ImgiLz48bGluZSB5Mj0iMTAyLjg1IiB4Mj0iMTIxLjE3IiB5MT0iODQuMSIgeDE9IjEyMS4xNyIgY2xhc3M9ImkiLz48L2c+PGc+PGNpcmNsZSByPSI0LjMiIGN5PSIxOS40OSIgY3g9IjgyLjc4IiBjbGFzcz0iZyIvPjxsaW5lIHkyPSI0MC4xOCIgeDI9IjgyLjc4IiB5MT0iMjEuMjMiIHgxPSI4Mi43OCIgY2xhc3M9ImYiLz48L2c+PGc+PHBvbHlsaW5lIHBvaW50cz0iNzkuMjMgMTIxLjUzIDUwLjI5IDEyMS44MyA1MC4yOSA2OC40MiAxMTUuMTggNjguNDIgMTE1LjE4IDEyMS44MyA5MC44NyAxMjEuNTgiIGNsYXNzPSJpIi8+PHBvbHlnb24gcG9pbnRzPSI5Mi4wNyAxMTcuNjEgODUuMTMgMTIxLjUzIDkxLjk5IDEyNS41OCA5Mi4wNyAxMTcuNjEiIGNsYXNzPSJlIi8+PC9nPjwvZz48L2c+PC9nPjwvZz48L3N2Zz4=;" parent="1" vertex="1">
          <mxGeometry x="267.5" y="737.5" width="59" height="59" as="geometry" />
        </mxCell>
        <mxCell id="0X6cPKjye94rvXZ-Qh8z-85" value="EKS Cluster" style="fillColor=none;strokeColor=#5A6C86;dashed=1;verticalAlign=top;fontStyle=0;fontColor=#5A6C86;whiteSpace=wrap;html=1;" parent="1" vertex="1">
          <mxGeometry x="157" y="113" width="684" height="776" as="geometry" />
        </mxCell>
        <mxCell id="iSd3-TlZQ7hKwoh6zEAJ-1" style="edgeStyle=orthogonalEdgeStyle;rounded=0;orthogonalLoop=1;jettySize=auto;html=1;entryX=0.305;entryY=0.512;entryDx=0;entryDy=0;entryPerimeter=0;" edge="1" parent="1" source="0X6cPKjye94rvXZ-Qh8z-1" target="0X6cPKjye94rvXZ-Qh8z-85">
          <mxGeometry relative="1" as="geometry" />
        </mxCell>
        <mxCell id="iSd3-TlZQ7hKwoh6zEAJ-2" value="" style="sketch=0;html=1;dashed=0;whitespace=wrap;fillColor=#2875E2;strokeColor=#ffffff;points=[[0.005,0.63,0],[0.1,0.2,0],[0.9,0.2,0],[0.5,0,0],[0.995,0.63,0],[0.72,0.99,0],[0.5,1,0],[0.28,0.99,0]];verticalLabelPosition=bottom;align=center;verticalAlign=top;shape=mxgraph.kubernetes.icon;prIcon=ns" vertex="1" parent="1">
          <mxGeometry x="195" y="168" width="25" height="21" as="geometry" />
        </mxCell>
        <mxCell id="iSd3-TlZQ7hKwoh6zEAJ-3" value="" style="sketch=0;html=1;dashed=0;whitespace=wrap;fillColor=#2875E2;strokeColor=#ffffff;points=[[0.005,0.63,0],[0.1,0.2,0],[0.9,0.2,0],[0.5,0,0],[0.995,0.63,0],[0.72,0.99,0],[0.5,1,0],[0.28,0.99,0]];verticalLabelPosition=bottom;align=center;verticalAlign=top;shape=mxgraph.kubernetes.icon;prIcon=ns" vertex="1" parent="1">
          <mxGeometry x="499" y="165" width="25" height="21" as="geometry" />
        </mxCell>
        <mxCell id="iSd3-TlZQ7hKwoh6zEAJ-4" value="" style="sketch=0;html=1;dashed=0;whitespace=wrap;fillColor=#2875E2;strokeColor=#ffffff;points=[[0.005,0.63,0],[0.1,0.2,0],[0.9,0.2,0],[0.5,0,0],[0.995,0.63,0],[0.72,0.99,0],[0.5,1,0],[0.28,0.99,0]];verticalLabelPosition=bottom;align=center;verticalAlign=top;shape=mxgraph.kubernetes.icon;prIcon=ns" vertex="1" parent="1">
          <mxGeometry x="306" y="429" width="25" height="21" as="geometry" />
        </mxCell>
        <mxCell id="iSd3-TlZQ7hKwoh6zEAJ-5" value="" style="sketch=0;html=1;dashed=0;whitespace=wrap;fillColor=#2875E2;strokeColor=#ffffff;points=[[0.005,0.63,0],[0.1,0.2,0],[0.9,0.2,0],[0.5,0,0],[0.995,0.63,0],[0.72,0.99,0],[0.5,1,0],[0.28,0.99,0]];verticalLabelPosition=bottom;align=center;verticalAlign=top;shape=mxgraph.kubernetes.icon;prIcon=ns" vertex="1" parent="1">
          <mxGeometry x="499" y="427" width="25" height="21" as="geometry" />
        </mxCell>
        <mxCell id="iSd3-TlZQ7hKwoh6zEAJ-6" value="" style="sketch=0;html=1;dashed=0;whitespace=wrap;fillColor=#2875E2;strokeColor=#ffffff;points=[[0.005,0.63,0],[0.1,0.2,0],[0.9,0.2,0],[0.5,0,0],[0.995,0.63,0],[0.72,0.99,0],[0.5,1,0],[0.28,0.99,0]];verticalLabelPosition=bottom;align=center;verticalAlign=top;shape=mxgraph.kubernetes.icon;prIcon=ns" vertex="1" parent="1">
          <mxGeometry x="206" y="680" width="25" height="21" as="geometry" />
        </mxCell>
        <mxCell id="iSd3-TlZQ7hKwoh6zEAJ-7" value="" style="sketch=0;html=1;dashed=0;whitespace=wrap;fillColor=#2875E2;strokeColor=#ffffff;points=[[0.005,0.63,0],[0.1,0.2,0],[0.9,0.2,0],[0.5,0,0],[0.995,0.63,0],[0.72,0.99,0],[0.5,1,0],[0.28,0.99,0]];verticalLabelPosition=bottom;align=center;verticalAlign=top;shape=mxgraph.kubernetes.icon;prIcon=ns" vertex="1" parent="1">
          <mxGeometry x="499" y="628" width="25" height="21" as="geometry" />
        </mxCell>
      </root>
    </mxGraphModel>
  </diagram>
</mxfile>
